<?xml version="1.0" standalone="no"?>
<!DOCTYPE svg PUBLIC "-//W3C//DTD SVG 20010904//EN"
 "http://www.w3.org/TR/2001/REC-SVG-20010904/DTD/svg10.dtd">
<svg version="1.0" xmlns="http://www.w3.org/2000/svg"
 width="4000.000000pt" height="4000.000000pt" viewBox="0 0 4000.000000 4000.000000"
 preserveAspectRatio="xMidYMid meet">
<metadata>
Created by potrace 1.14, written by Peter Selinger 2001-2017
</metadata>
<g transform="translate(0.000000,4000.000000) scale(0.100000,-0.100000)"
fill="#000000" stroke="none">
<path d="M31585 33886 c-33 -8 -278 -95 -545 -194 -267 -100 -1416 -528 -2555
-952 -1138 -424 -2898 -1080 -3910 -1457 -1012 -377 -2009 -748 -2215 -825
-206 -77 -1142 -425 -2080 -775 -938 -349 -1838 -684 -2000 -745 -162 -60
-578 -216 -925 -345 -346 -129 -652 -247 -680 -261 -27 -15 -79 -56 -115 -92
-111 -111 -164 -239 -164 -395 0 -208 110 -393 291 -488 l71 -37 -52 -49
c-104 -100 -169 -251 -170 -396 0 -161 49 -280 164 -396 81 -82 158 -127 265
-154 93 -24 172 -18 402 27 117 23 215 39 218 37 3 -3 4 -961 3 -2129 l-3
-2123 -53 86 c-80 131 -160 233 -269 340 -253 250 -537 395 -913 464 -134 24
-511 24 -665 0 -250 -40 -496 -109 -733 -207 -155 -63 -263 -117 -465 -234
-89 -51 -364 -209 -612 -351 -247 -142 -489 -284 -536 -316 -85 -57 -91 -59
-575 -209 -268 -83 -538 -171 -599 -196 -627 -256 -1165 -698 -1535 -1260
-182 -277 -300 -548 -360 -829 -33 -154 -39 -422 -12 -580 56 -323 217 -633
475 -908 l45 -49 -5 -161 c-6 -187 1 -247 78 -622 325 -1593 990 -2955 1972
-4040 50 -55 163 -172 252 -260 724 -721 1557 -1265 2545 -1662 337 -135 777
-276 1125 -358 88 -21 162 -40 164 -42 2 -1 -10 -39 -28 -82 -51 -132 -64
-201 -58 -331 8 -197 74 -339 231 -496 122 -122 226 -191 412 -277 1353 -619
4309 -225 5769 771 147 100 240 176 361 297 168 166 270 323 330 505 24 75 27
101 28 215 0 120 -2 137 -31 218 -37 106 -79 176 -159 270 l-61 72 161 106
c1184 776 2120 1809 2717 3000 673 1345 932 2871 768 4529 -21 220 -80 646
-104 762 -62 293 -221 562 -471 797 l-95 88 -3 224 c-19 1106 -462 2028 -1208
2513 -188 122 -447 226 -617 246 -342 42 -738 -137 -1117 -503 -262 -252 -476
-534 -689 -907 -80 -138 -245 -470 -245 -491 0 -8 -26 -10 -92 -5 -51 3 -189
9 -305 12 l-213 7 0 2516 0 2517 93 18 c50 9 1872 372 4047 806 2175 434 4486
895 5135 1025 650 129 1207 244 1238 254 234 81 421 256 516 485 101 243 78
542 -60 773 -45 74 -157 194 -235 249 -142 102 -315 156 -494 156 -127 0 -65
12 -855 -177 -357 -85 -771 -184 -920 -220 -148 -35 -695 -166 -1215 -290
-520 -124 -1141 -273 -1380 -330 -774 -185 -2449 -585 -2660 -635 -113 -27
-450 -108 -750 -180 -300 -71 -619 -148 -710 -170 -91 -21 -478 -114 -860
-205 -382 -91 -757 -180 -832 -199 l-136 -33 -51 57 c-53 61 -133 119 -193
141 -21 7 -38 16 -38 19 0 7 129 50 4870 1615 943 311 1951 644 2240 740 904
299 2543 840 2835 936 309 101 397 137 488 203 395 282 473 846 169 1228 -105
132 -235 222 -403 279 -86 29 -107 33 -239 35 -97 3 -165 -1 -205 -10z m338
-377 c227 -75 371 -332 316 -569 -28 -121 -123 -250 -229 -312 -25 -14 -497
-175 -1050 -357 -553 -183 -1093 -361 -1200 -397 -107 -35 -200 -64 -206 -64
-7 0 -13 36 -17 93 -7 100 -33 232 -67 335 -30 91 -86 216 -102 225 -8 6 -108
-27 -273 -88 -143 -53 -335 -124 -427 -158 -92 -34 -168 -66 -168 -70 0 -5 11
-23 24 -40 114 -152 139 -410 57 -577 l-26 -54 -232 -77 -231 -77 -7 77 c-9
109 -32 231 -61 322 -28 88 -77 204 -91 212 -7 4 -494 -170 -521 -187 -6 -3 5
-34 23 -68 74 -140 105 -305 86 -449 -6 -46 -17 -89 -24 -95 -6 -7 -226 -82
-487 -168 -261 -87 -684 -226 -940 -311 -527 -174 -2076 -686 -3845 -1270
-660 -218 -1396 -461 -1635 -540 -375 -124 -2336 -770 -2640 -870 -58 -19
-289 -96 -515 -171 -225 -75 -427 -141 -448 -146 -77 -17 -170 31 -207 107
-38 79 -12 184 60 235 15 11 428 169 917 351 488 182 1176 438 1528 569 352
131 944 352 1315 490 371 138 1195 445 1830 682 635 236 1648 614 2250 838
602 225 1156 431 1230 458 74 28 342 127 595 222 253 94 528 196 610 226 380
139 673 247 700 260 42 18 279 107 555 207 392 143 833 306 870 323 31 15 234
91 790 297 229 85 580 216 1143 426 251 94 478 175 505 180 65 14 170 5 245
-20z m593 -2800 c124 -22 255 -111 322 -217 170 -267 38 -631 -263 -725 -48
-16 -2451 -497 -2479 -497 -10 0 -14 37 -19 173 -6 176 -22 279 -67 425 -12
41 -28 76 -34 78 -7 3 -77 -11 -156 -30 -167 -40 -380 -91 -592 -142 -82 -20
-148 -40 -148 -45 0 -5 6 -20 14 -32 26 -40 64 -171 71 -243 11 -114 -36 -300
-96 -376 -10 -13 -79 -31 -257 -67 l-243 -48 6 86 c12 143 -27 406 -76 517
l-14 31 -270 -65 c-148 -35 -271 -65 -272 -66 -1 -1 11 -40 27 -86 55 -163 60
-317 14 -481 l-16 -56 -2871 -573 c-1580 -315 -2880 -575 -2889 -578 -17 -4
-18 15 -18 296 l0 299 33 6 c17 3 428 101 912 217 484 116 1114 267 1400 335
286 68 880 210 1320 315 440 105 978 234 1195 286 217 52 485 115 595 141 110
25 328 77 485 115 262 63 398 95 1070 254 129 31 372 90 540 131 302 74 379
92 1240 298 1157 276 1357 324 1380 328 47 8 96 7 156 -4z m-10765 -2222 c19
-12 42 -38 51 -57 17 -33 18 -189 18 -2832 0 -1769 -4 -2799 -10 -2803 -5 -3
-7 -13 -4 -23 4 -10 3 -13 -3 -6 -9 13 -210 -131 -205 -147 1 -6 -2 -8 -7 -4
-13 7 -97 -53 -93 -67 1 -5 -2 -7 -7 -4 -5 3 -32 -10 -60 -29 -28 -19 -55 -35
-61 -35 -5 0 -10 -4 -10 -8 0 -5 -12 -14 -26 -20 -15 -7 -22 -17 -18 -24 4 -6
3 -8 -4 -4 -5 3 -13 0 -15 -6 -3 -7 -6 1342 -6 2997 l-1 3010 168 41 c199 50
246 53 293 21z m-741 -3178 c0 -2573 -2 -3043 -14 -3054 -7 -8 -16 -11 -20 -8
-3 4 -6 -392 -6 -879 0 -700 3 -887 13 -891 7 -2 0 -10 -15 -17 -16 -7 -28
-16 -28 -19 0 -12 44 -10 52 2 4 6 10 8 15 4 4 -5 1 -12 -6 -17 -8 -5 -11 -16
-7 -26 6 -18 6 -18 -8 -1 -8 10 -21 19 -29 21 -20 3 -67 35 -67 45 0 5 11 8
25 7 23 -1 24 -2 8 -14 -15 -11 -15 -12 0 -12 9 0 21 9 27 20 14 26 14 1730 0
1730 -6 0 -10 5 -10 11 0 5 5 7 10 4 6 -3 10 1 10 10 0 12 -19 6 -82 -27 -46
-23 -85 -42 -88 -43 -16 -2 -207 -79 -217 -88 -7 -5 -13 -6 -13 -2 0 4 -11 0
-25 -9 -13 -9 -35 -17 -47 -17 l-23 -2 23 -4 c13 -3 19 -9 16 -15 -5 -8 4 -9
27 -5 30 5 31 5 11 -5 -18 -9 -30 -8 -58 5 -43 21 -55 21 -29 1 l20 -16 -20 4
c-20 3 -20 11 -20 3108 l0 3104 270 67 c149 37 278 67 288 68 16 1 17 -150 17
-3040z m-852 -274 c-2 -2448 -6 -3107 -15 -3113 -18 -12 -24 -1052 -5 -1052 6
0 12 -4 12 -10 0 -5 -4 -10 -10 -10 -5 0 -10 -5 -10 -11 0 -5 6 -7 13 -3 9 5
9 4 0 -6 -9 -10 -15 -9 -29 4 -9 10 -23 15 -30 12 -7 -3 -12 0 -10 7 1 7 1 9
-1 5 -6 -11 -23 -10 -23 1 0 17 32 21 47 5 8 -8 18 -12 21 -9 4 3 0 10 -8 15
-10 7 -11 10 -3 10 10 0 13 117 15 525 3 473 1 525 -13 525 -9 0 -19 -3 -23
-7 -4 -5 -17 -9 -29 -10 -30 -2 -98 -19 -122 -29 -18 -8 -17 -9 10 -15 29 -6
29 -7 4 -8 -15 0 -32 6 -39 14 -7 8 -16 12 -21 9 -5 -3 -31 -8 -57 -11 -26 -3
-54 -9 -63 -13 -9 -5 -24 -7 -35 -4 -10 3 -47 1 -81 -4 l-63 -9 0 3082 0 3081
268 66 c147 36 275 66 285 67 16 1 17 -149 15 -3104z m-838 -150 c0 -2902 -1
-3055 -17 -3056 -17 -1 -17 -2 0 -6 21 -6 23 -23 2 -23 -9 0 -18 7 -21 15 -5
12 -25 14 -98 13 -50 -1 -102 2 -116 6 -19 6 -21 5 -10 -3 13 -9 13 -11 -2
-11 -10 0 -18 5 -18 10 0 6 -26 10 -57 11 -32 0 -88 3 -125 8 -46 5 -68 4 -68
-3 0 -6 -5 -4 -10 4 -6 10 -10 -145 -12 -450 l-2 -465 -7 525 c-3 289 -7 1833
-8 3431 l-1 2907 278 70 c152 38 280 70 285 71 4 1 7 -1374 7 -3054z m-840
-75 l0 -2919 -40 14 c-22 8 -57 16 -77 19 -21 3 -54 10 -73 15 -45 14 -50 14
-50 -4 0 -11 -12 -14 -50 -12 -39 2 -46 4 -30 11 43 19 13 46 -52 46 -16 0
-28 5 -28 10 0 6 -18 10 -41 10 -22 0 -38 4 -35 8 2 4 -4 8 -15 8 -19 0 -19
-11 -17 -617 2 -386 -1 -611 -6 -601 -6 10 -11 1318 -14 3354 -4 3133 -4 3341
12 3383 10 25 31 54 48 66 25 18 404 124 456 128 9 1 12 -589 12 -2919z m-890
2165 c0 -113 -3 -205 -7 -205 -3 0 -110 -21 -237 -46 -264 -53 -306 -54 -364
-7 -44 35 -82 104 -82 150 0 72 51 148 118 176 38 16 523 135 555 136 16 1 17
-15 17 -204z m7365 -3205 c166 -60 217 -91 273 -169 146 -199 240 -501 273
-871 23 -267 3 -683 -51 -1016 -101 -625 -338 -1310 -610 -1761 l-43 -71 -46
34 c-494 370 -1068 608 -1651 683 -70 9 -335 31 -377 31 -13 0 -11 29 23 238
87 535 331 1211 622 1722 257 452 580 831 874 1028 281 187 490 232 713 152z
m859 -688 c251 -358 409 -809 478 -1362 19 -155 16 -592 -5 -755 -82 -617
-298 -1110 -641 -1463 -87 -89 -231 -212 -248 -212 -4 0 -44 44 -89 98 -46 53
-132 147 -191 208 l-109 111 52 83 c129 209 279 531 387 835 315 887 415 1777
277 2460 -13 67 -28 131 -32 141 -9 26 55 -51 121 -144z m-4024 -342 c0 -15
-38 -32 -45 -20 -3 5 3 10 15 10 12 0 18 5 15 10 -3 6 -1 10 4 10 6 0 11 -4
11 -10z m30 0 c0 -5 -5 -10 -11 -10 -5 0 -7 5 -4 10 3 6 8 10 11 10 2 0 4 -4
4 -10z m-10 -1111 l0 -1091 -31 7 c-20 5 -29 4 -25 -3 4 -6 -2 -8 -16 -4 -13
3 -19 1 -15 -5 5 -7 -1 -9 -15 -5 -22 6 -22 6 -3 10 l20 5 -20 7 c-12 5 3 7
38 6 l57 -2 0 1083 c0 596 2 1083 5 1083 3 0 5 -491 5 -1091z m-80 1061 c0 -5
-10 -10 -22 -10 -19 0 -20 2 -8 10 19 13 30 13 30 0z m-5350 -43 c180 -43 303
-97 453 -200 350 -239 588 -689 652 -1233 15 -132 20 -518 7 -603 l-7 -45
-115 -64 c-63 -35 -146 -84 -183 -108 -37 -24 -69 -44 -71 -44 -2 0 3 33 10
74 60 348 36 721 -67 1036 -134 406 -405 696 -742 794 -294 85 -603 38 -975
-149 l-162 -82 -95 23 c-146 35 -333 56 -522 57 -95 1 -169 5 -165 8 34 27
516 291 609 333 261 117 506 187 808 230 17 2 127 3 245 1 188 -3 228 -6 320
-28z m5294 21 c-5 -8 5 -9 39 -5 34 5 47 3 47 -6 0 -8 -21 -12 -63 -13 -40 -1
-55 1 -42 6 11 5 16 9 12 9 -9 1 0 21 9 21 3 0 2 -5 -2 -12z m-94 -72 c0 -2
-17 -14 -37 -25 l-38 -21 30 25 c28 23 45 31 45 21z m-76 -85 c16 -17 16 -19
0 -25 -9 -4 -19 -4 -22 -1 -3 3 1 5 8 5 9 0 8 6 -5 20 -10 11 -14 20 -8 20 5
0 18 -8 27 -19z m-43 -8 c13 -17 13 -17 -5 -3 -18 14 -19 13 -13 -2 3 -10 3
-18 -2 -18 -16 0 -21 13 -10 27 14 16 14 16 30 -4z m-101 -85 c0 -5 -5 -8 -11
-8 -5 0 -7 5 -4 10 3 6 1 10 -5 10 -6 0 -8 5 -4 11 6 11 23 -6 24 -23z m-30
-1017 c0 -823 -2 -1001 -13 -1010 -8 -6 -17 -8 -20 -4 -4 3 -7 457 -7 1009 0
1012 0 1025 33 1007 4 -2 7 -453 7 -1002z m17 -503 c-1 -277 -2 -51 -2 502 0
553 1 779 2 503 2 -277 2 -729 0 -1005z m-340 15 c-1 -246 -2 -47 -2 442 0
490 1 691 2 448 2 -243 2 -643 0 -890z m-64 1277 c7 -1 -3 -7 -22 -15 -18 -8
-41 -14 -50 -14 -12 1 -12 2 3 6 15 4 16 7 5 14 -9 7 -4 8 16 3 24 -4 27 -3
15 6 -13 10 -12 11 3 6 10 -3 24 -6 30 -6z m-150 -54 c4 -10 1 -13 -8 -9 -8 3
-12 9 -9 14 7 12 11 11 17 -5z m-73 -26 c-8 -5 -22 -9 -30 -9 -10 0 -8 3 5 9
27 12 43 12 25 0z m51 -7 c-9 -4 -10 -7 -2 -13 7 -3 -10 -7 -36 -7 l-48 0 35
13 c35 12 81 19 51 7z m-141 -43 c-20 -13 -43 -13 -35 0 3 6 16 10 28 10 18 0
19 -2 7 -10z m10 -30 c0 -5 -5 -10 -11 -10 -5 0 -8 -4 -5 -9 3 -4 -8 -8 -24
-7 -35 1 -34 17 1 27 35 10 39 10 39 -1z m-2514 -67 c-13 -3 -15 -7 -7 -12 9
-6 8 -11 -4 -21 -13 -11 -15 -10 -9 4 4 11 1 16 -12 16 -16 0 -17 2 -4 10 8 5
24 9 35 9 19 -1 19 -2 1 -6z m171 -39 c-3 -3 -12 -4 -19 -1 -8 3 -5 6 6 6 11
1 17 -2 13 -5z m1763 -24 c0 -5 -4 -10 -9 -10 -5 0 -24 -2 -42 -5 l-34 -6 35
14 c45 18 50 19 50 7z m-1612 -27 c-10 -2 -26 -2 -35 0 -10 3 -2 5 17 5 19 0
27 -2 18 -5z m1595 -10 c-7 -2 -19 -2 -25 0 -7 3 -2 5 12 5 14 0 19 -2 13 -5z
m-1563 -10 c0 -5 -18 -8 -40 -8 -22 -1 -40 3 -40 7 0 4 18 8 40 8 22 0 40 -3
40 -7z m1363 0 c3 -5 -10 -8 -29 -9 -19 0 -34 3 -34 8 0 10 57 11 63 1z m54 1
c-3 -3 -12 -4 -19 -1 -8 3 -5 6 6 6 11 1 17 -2 13 -5z m173 -4 c-8 -5 -24 -9
-35 -9 -16 1 -16 2 5 9 35 11 48 11 30 0z m-133 -6 c-3 -3 -12 -4 -19 -1 -8 3
-5 6 6 6 11 1 17 -2 13 -5z m-803 -49 c3 -8 1 -15 -4 -15 -6 0 -10 4 -10 9 0
5 -10 12 -22 14 -21 4 -20 4 3 6 16 0 29 -5 33 -14z m52 0 c14 -13 13 -15 -4
-15 -10 0 -19 7 -19 15 0 8 2 15 4 15 3 0 11 -7 19 -15z m-121 -5 c-3 -5 -10
-10 -16 -10 -5 0 -9 5 -9 10 0 6 7 10 16 10 8 0 12 -4 9 -10z m248 -7 c-7 -2
-19 -2 -25 0 -7 3 -2 5 12 5 14 0 19 -2 13 -5z m-225 -20 c-10 -2 -26 -2 -35
0 -10 3 -2 5 17 5 19 0 27 -2 18 -5z m80 0 c-10 -2 -26 -2 -35 0 -10 3 -2 5
17 5 19 0 27 -2 18 -5z m145 -804 c-5 -5 -6 177 -3 404 l5 412 3 -404 c1 -223
-1 -408 -5 -412z m-4572 771 c519 -51 890 -254 1125 -615 88 -136 144 -265
187 -430 36 -138 45 -198 57 -362 21 -296 -28 -650 -135 -981 l-36 -112 -62
-1 c-34 0 -116 -6 -182 -13 -66 -7 -122 -11 -124 -10 -2 2 10 41 27 86 79 213
124 410 143 618 49 552 -135 1028 -485 1258 -357 234 -843 225 -1435 -26 -154
-65 -192 -96 -241 -196 -54 -112 -65 -172 -64 -366 0 -140 5 -198 23 -289 93
-471 347 -999 679 -1409 l82 -102 -47 -28 c-26 -15 -106 -66 -179 -114 -73
-49 -135 -88 -137 -88 -13 0 -200 258 -276 379 -292 467 -478 987 -590 1650
-25 143 -34 178 -53 198 -52 55 -133 72 -196 39 -48 -25 -252 -225 -337 -331
-280 -348 -390 -711 -330 -1085 79 -485 479 -962 1041 -1243 60 -30 130 -62
157 -72 26 -10 47 -21 47 -24 0 -4 -28 -41 -62 -82 -35 -41 -83 -101 -107
-132 -24 -31 -47 -57 -52 -57 -20 0 -298 145 -427 223 -451 272 -756 566 -912
882 -66 134 -92 208 -117 334 -23 115 -22 333 2 461 76 409 348 868 736 1245
188 182 384 331 604 457 101 58 106 61 420 157 417 128 570 161 860 184 95 8
301 6 396 -3z m2028 -195 c153 -79 143 -351 -14 -381 -70 -13 -102 36 -131
197 -19 109 -14 161 19 184 27 19 90 19 126 0z m1651 -596 c0 -5 -4 -9 -10 -9
-5 0 -10 7 -10 16 0 8 5 12 10 9 6 -3 10 -10 10 -16z m434 9 c-6 -9 -63 -7
-69 2 -2 3 14 5 35 6 21 0 36 -4 34 -8z m793 6 c-3 -3 -12 -4 -19 -1 -8 3 -5
6 6 6 11 1 17 -2 13 -5z m40 -14 c-6 -23 5 -25 35 -9 17 9 18 13 7 20 -9 6
-10 9 -2 9 16 0 23 -13 15 -26 -10 -15 -75 -37 -66 -23 4 8 -1 9 -16 4 -15 -5
-20 -4 -16 4 4 6 0 11 -9 11 -9 0 -13 -4 -10 -10 8 -12 -5 -13 -24 -1 -12 8
-9 11 11 16 15 4 36 4 48 0 11 -4 20 -3 19 2 -2 13 1 23 7 23 4 0 4 -9 1 -20z
m103 7 c-27 -15 -36 -14 -25 2 3 6 16 11 28 11 21 0 21 -1 -3 -13z m-3054 -13
c39 -19 68 -61 92 -136 13 -41 17 -88 17 -208 0 -171 -14 -256 -67 -420 l-31
-95 -126 -128 c-72 -73 -132 -126 -141 -125 -10 3 -14 14 -13 33 1 17 5 104 8
195 5 125 15 206 40 335 18 94 38 204 45 245 26 169 65 276 108 303 33 20 27
20 68 1z m3074 -14 c0 -5 -5 -10 -11 -10 -6 0 -9 -7 -5 -15 3 -8 1 -15 -4 -15
-6 0 -10 5 -10 11 0 8 -11 9 -32 5 -32 -6 -32 -6 -11 9 12 8 28 12 37 9 9 -3
16 -1 16 5 0 6 5 11 10 11 6 0 10 -4 10 -10z m28 -19 c-1 -17 -7 -27 -14 -24
-9 3 -9 10 0 29 14 31 17 30 14 -5z m-1418 15 c0 -3 -4 -8 -10 -11 -5 -3 -10
-1 -10 4 0 6 5 11 10 11 6 0 10 -2 10 -4z m57 -12 c-3 -3 -12 -4 -19 -1 -8 3
-5 6 6 6 11 1 17 -2 13 -5z m-377 -34 c8 -5 11 -10 5 -10 -5 0 -17 5 -25 10
-8 5 -10 10 -5 10 6 0 17 -5 25 -10z m53 -7 c-6 -15 -2 -16 22 -7 10 4 13 9 6
13 -6 4 6 7 27 8 34 1 35 0 12 -9 -13 -5 -31 -15 -40 -23 -13 -11 -18 -11 -34
1 -11 8 -16 14 -10 14 5 0 2 5 -6 10 -12 7 -10 9 7 8 12 -1 19 -7 16 -15z
m117 7 c0 -5 -2 -10 -4 -10 -2 0 -12 -3 -22 -7 -16 -6 -17 -5 -4 10 17 19 30
22 30 7z m1707 3 c-8 -7 -103 -11 -114 -5 -6 4 18 8 53 8 36 1 63 -1 61 -3z
m-1934 -10 c9 -9 -13 -34 -24 -27 -14 8 -11 34 4 34 8 0 17 -3 20 -7z m1999
-16 c3 -6 15 -11 25 -12 23 -1 43 -13 43 -25 0 -5 -12 -2 -27 6 -16 7 -43 14
-60 14 -18 0 -33 4 -33 9 0 5 -10 11 -22 14 -13 2 -3 4 22 4 25 0 48 -4 52
-10z m-1922 -13 c14 -8 18 -13 9 -10 -9 2 -22 -1 -29 -7 -10 -10 -12 -8 -7 6
6 15 3 17 -14 12 -15 -5 -19 -4 -15 4 10 15 26 13 56 -5z m-70 -24 c0 -5 -5
-10 -11 -10 -5 0 -7 5 -4 10 3 6 8 10 11 10 2 0 4 -4 4 -10z m2420 -101 c0 7
5 9 10 6 6 -4 9 -14 8 -23 -2 -10 5 -18 17 -20 17 -3 18 -1 5 8 -12 10 -12 11
5 5 11 -4 26 -8 33 -8 17 -1 15 -24 -4 -31 -8 -3 -12 -2 -9 3 3 5 1 12 -5 16
-5 3 -10 2 -10 -4 0 -6 -11 -5 -30 2 -24 9 -27 14 -17 26 10 12 9 13 -8 3 -18
-9 -21 -7 -22 10 -2 16 1 17 13 8 11 -10 14 -10 14 -1z m55 1 c3 -5 2 -10 -4
-10 -5 0 -13 5 -16 10 -3 6 -2 10 4 10 5 0 13 -4 16 -10z m35 -4 c0 -3 -4 -8
-10 -11 -5 -3 -10 -1 -10 4 0 6 5 11 10 11 6 0 10 -2 10 -4z m-1070 -91 c436
-60 823 -191 1195 -404 61 -35 114 -67 119 -71 4 -5 -38 -38 -95 -75 -57 -37
-148 -101 -202 -142 l-99 -75 -127 60 c-390 186 -766 272 -1187 272 -264 0
-470 -26 -716 -90 -360 -93 -729 -280 -1028 -521 -118 -95 -298 -271 -379
-372 -30 -37 -62 -67 -70 -67 -9 0 -65 11 -124 24 -60 14 -164 33 -233 42 -68
10 -124 21 -124 25 0 4 34 54 76 111 550 741 1379 1209 2301 1298 133 13 560
4 693 -15z m1188 13 c10 -8 9 -14 -5 -24 -16 -13 -16 -14 8 -8 15 3 30 1 33
-4 4 -6 -3 -8 -16 -5 -20 4 -18 2 7 -16 39 -27 31 -26 -27 3 -42 21 -45 25
-25 30 l22 7 -23 10 c-26 10 -46 3 -37 -12 3 -5 -1 -6 -9 -3 -9 3 -14 10 -11
14 3 5 -3 10 -12 12 -10 2 5 5 32 5 28 1 56 -3 63 -9z m37 1 c11 -16 1 -19
-13 -3 -7 8 -8 14 -3 14 5 0 13 -5 16 -11z m102 -80 c13 6 29 11 36 10 7 0 3
-4 -8 -9 -11 -5 -14 -9 -7 -9 15 -1 6 -21 -9 -21 -6 0 -7 5 -4 10 3 6 2 10 -4
10 -19 0 -21 -19 -4 -29 10 -6 13 -11 6 -11 -6 0 -18 7 -26 15 -8 8 -18 11
-22 7 -5 -4 -4 -1 0 7 6 10 4 13 -7 9 -8 -4 -15 0 -15 7 0 11 5 11 20 3 14 -7
27 -7 44 1z m853 -9 c18 -12 2 -12 -25 0 -13 6 -15 9 -5 9 8 0 22 -4 30 -9z
m-25 -20 c-3 -5 -16 -10 -28 -9 -20 1 -20 2 3 9 14 4 26 8 28 9 2 1 0 -3 -3
-9z m-770 -30 c-2 -8 -4 -16 -4 -18 -1 -4 -31 25 -31 30 0 2 8 4 19 4 11 0 17
-6 16 -16z m520 -40 c4 0 5 6 2 13 -3 9 7 13 34 13 21 0 37 -2 34 -4 -3 -3 0
-11 6 -19 14 -17 -3 -17 -20 0 -10 10 -11 8 -6 -8 5 -15 3 -14 -8 4 -11 19
-15 20 -20 8 -3 -9 -1 -17 4 -19 6 -2 -6 -11 -26 -21 -20 -10 -33 -12 -30 -6
4 6 17 15 29 20 20 9 20 9 -4 6 -20 -3 -25 1 -25 20 0 20 2 21 11 8 6 -8 15
-15 19 -15z m102 15 c0 -8 -4 -12 -9 -9 -5 3 -6 10 -3 15 9 13 12 11 12 -6z
m43 5 c-8 -5 -19 -10 -25 -10 -5 0 -3 5 5 10 8 5 20 10 25 10 6 0 3 -5 -5 -10z
m-6091 -51 c123 -69 129 -272 11 -354 -38 -26 -96 -33 -130 -15 -28 15 -40 64
-40 161 0 106 15 184 41 210 25 25 72 24 118 -2z m7506 -114 c77 -8 191 -24
253 -36 l113 -21 15 -37 c8 -19 12 -46 9 -59 -4 -15 -2 -21 5 -17 7 4 10 -7 8
-32 -4 -68 1 -115 12 -108 7 4 9 -2 4 -19 -4 -16 -2 -26 5 -26 6 0 12 8 12 18
1 9 5 1 9 -18 l7 -35 2 33 c0 18 5 31 10 28 5 -3 9 -22 8 -41 -1 -19 -3 -31
-6 -27 -4 4 -15 8 -26 9 -19 2 -20 -2 -15 -62 3 -41 12 -71 22 -81 15 -16 16
-14 12 27 l-4 44 12 -40 c11 -42 25 -58 44 -51 6 2 11 -2 11 -9 0 -10 -5 -11
-17 -5 -10 5 -20 6 -24 3 -3 -3 -6 -2 -6 3 0 5 -8 10 -18 11 -10 1 -90 17
-178 37 -216 48 -381 66 -614 66 -289 0 -536 -35 -780 -109 -718 -219 -1297
-692 -1653 -1351 -112 -208 -221 -511 -267 -741 l-11 -55 -74 2 c-41 1 -78 5
-82 7 -5 3 -36 7 -70 9 -34 1 -59 6 -57 10 3 5 -2 8 -11 8 -9 0 -13 -5 -10
-11 4 -5 -10 -3 -30 5 -21 9 -49 16 -63 16 -34 0 -22 -10 19 -15 18 -3 37 -10
43 -16 8 -9 4 -10 -16 -5 -16 3 -40 8 -55 11 -27 5 -27 5 -6 -6 21 -11 21 -14
8 -40 -8 -15 -13 -34 -12 -41 2 -7 2 -9 -1 -5 -2 4 -10 3 -18 -4 -11 -9 -14
-8 -14 4 0 8 -5 17 -12 19 -8 3 -7 11 5 28 13 19 14 27 4 39 -10 12 -9 13 1 7
10 -6 12 -1 7 26 -4 22 3 77 20 154 170 758 607 1425 1244 1897 446 332 1024
552 1586 606 150 14 488 12 640 -4z m405 -79 c0 -8 6 -17 13 -19 7 -4 6 -6 -4
-6 -9 -1 -19 8 -22 19 -3 11 -1 20 4 20 5 0 9 -6 9 -14z m75 -16 c5 -8 -32
-30 -51 -30 -17 0 11 20 29 21 21 0 21 1 2 9 -16 7 -17 9 -3 9 9 1 20 -4 23
-9z m84 -31 c-13 -4 -18 -7 -10 -8 8 -1 12 -3 9 -6 -3 -3 -13 -2 -22 1 -14 5
-15 9 -4 16 9 7 2 8 -20 4 -26 -4 -30 -3 -20 7 9 10 21 11 51 3 35 -10 37 -11
16 -17z m-144 -9 c3 -5 1 -10 -4 -10 -6 0 -11 5 -11 10 0 6 2 10 4 10 3 0 8
-4 11 -10z m203 2 c8 -6 2 -9 -18 -9 -20 0 -26 3 -18 9 7 4 15 8 18 8 3 0 11
-4 18 -8z m-130 -9 c-10 -2 -28 -2 -40 0 -13 2 -5 4 17 4 22 1 32 -1 23 -4z
m182 -8 c0 -2 -6 -5 -13 -8 -8 -3 -14 1 -14 8 0 7 6 11 14 8 7 -3 13 -6 13 -8z
m19 -36 c-21 -6 -22 -7 -4 -9 11 -1 23 -2 28 -1 4 0 7 -4 7 -10 0 -8 4 -8 14
0 8 7 17 8 20 3 8 -14 -28 -21 -48 -10 -10 5 -29 7 -44 4 -18 -5 -22 -4 -13 3
7 5 10 14 7 20 -4 6 0 11 8 11 9 0 16 5 16 11 0 8 6 7 16 -2 15 -12 14 -14 -7
-20z m118 -12 c7 0 9 -5 6 -10 -4 -7 1 -8 13 -3 13 5 16 4 9 -3 -7 -7 -26 -3
-59 14 -62 31 -74 43 -21 20 22 -10 45 -18 52 -18z m2753 -77 c62 -87 38 -311
-54 -506 -87 -183 -208 -346 -415 -558 -952 -971 -2858 -1875 -5096 -2416
-175 -42 -286 -67 -600 -136 -954 -209 -2187 -372 -3225 -426 -265 -13 -1156
-17 -1445 -5 -1410 56 -2701 352 -3412 780 -197 119 -379 272 -402 338 -8 24
-8 29 2 22 6 -6 39 -32 72 -58 130 -105 345 -231 546 -320 68 -31 133 -60 144
-65 49 -24 324 -121 465 -165 687 -210 1514 -340 2465 -385 270 -13 1066 -13
1350 0 1151 52 2295 204 3480 460 327 71 591 135 905 220 1057 286 1925 606
2755 1015 1457 719 2404 1588 2405 2208 0 44 1 47 19 37 11 -5 29 -24 41 -40z
m-2673 18 c-3 -8 -6 -5 -6 6 -1 11 2 17 5 13 3 -3 4 -12 1 -19z m53 2 c13 -9
13 -10 0 -10 -9 -1 -5 -6 10 -15 14 -8 21 -15 15 -16 -5 0 -28 -3 -50 -4 l-40
-4 30 15 30 14 -30 -5 c-16 -2 -24 -2 -17 1 6 3 12 12 12 20 0 16 18 18 40 4z
m50 -20 c8 -5 11 -10 5 -10 -5 0 -17 5 -25 10 -8 5 -10 10 -5 10 6 0 17 -5 25
-10z m35 -20 c3 -6 -4 -10 -17 -10 -18 0 -20 2 -8 10 19 12 18 12 25 0z m50
-20 c3 -6 -4 -10 -17 -10 -18 0 -20 2 -8 10 19 12 18 12 25 0z m50 -30 c10
-11 14 -20 9 -20 -5 0 -3 -4 4 -9 9 -5 3 -8 -17 -9 -17 0 -33 4 -36 9 -4 5
-15 9 -26 9 -10 0 -19 5 -19 10 0 6 15 4 37 -5 28 -12 39 -13 47 -4 7 8 7 10
1 6 -6 -3 -17 -2 -25 4 -13 7 -13 9 0 9 13 0 13 1 0 10 -8 5 -10 10 -4 10 6 0
19 -9 29 -20z m100 -47 c19 -9 35 -20 35 -25 0 -13 -16 -9 -41 11 -13 10 -31
21 -39 24 -9 3 -10 6 -3 6 7 1 28 -7 48 -16z m-4752 -28 c234 -37 428 -91 626
-176 63 -27 117 -52 120 -54 2 -3 -38 -49 -90 -102 -52 -54 -127 -137 -167
-184 l-72 -87 -75 29 c-198 77 -441 119 -690 119 -256 0 -482 -40 -712 -126
-217 -81 -446 -220 -625 -378 l-97 -86 -98 49 c-101 50 -321 141 -341 141 -26
0 -7 25 106 138 135 137 261 240 417 342 125 81 364 201 505 253 171 63 402
116 605 137 116 13 473 3 588 -15z m4792 -15 c9 8 15 8 20 0 3 -6 10 -8 14 -5
5 2 16 -1 25 -8 14 -10 4 -12 -52 -13 -64 0 -68 1 -68 23 0 22 1 22 24 7 17
-11 27 -13 37 -4z m-805 -7 c0 -8 -4 -12 -9 -8 -5 3 -12 -7 -14 -22 -3 -24 -4
-23 -6 8 -1 26 3 36 14 36 8 0 15 -7 15 -14z m17 -30 c-3 -10 -5 -4 -5 12 0
17 2 24 5 18 2 -7 2 -21 0 -30z m-8138 3 c71 -37 89 -221 38 -406 -28 -105
-91 -263 -112 -280 -7 -6 -56 -22 -109 -36 -53 -13 -138 -38 -187 -55 -50 -17
-93 -28 -95 -26 -3 2 22 58 55 125 33 66 86 180 117 253 143 340 175 401 225
426 31 16 34 16 68 -1z m-2691 -43 c24 -34 43 -90 76 -220 14 -54 53 -177 86
-273 71 -201 81 -274 43 -311 -25 -25 -94 -29 -134 -8 -113 59 -213 211 -259
393 -29 119 -26 288 8 352 48 92 138 125 180 67z m11773 -2 c9 -11 19 -18 22
-15 3 3 7 1 10 -3 3 -5 -3 -10 -14 -10 -10 -1 -19 5 -19 13 0 8 -5 14 -11 14
-6 0 -9 -7 -5 -15 3 -8 1 -15 -4 -15 -6 0 -10 6 -10 13 0 9 -3 8 -9 -2 -5 -8
-11 -9 -15 -3 -3 6 3 13 14 17 11 4 18 11 14 16 -4 6 -10 6 -18 0 -9 -8 -13
-7 -13 3 0 20 38 11 58 -13z m-803 -46 c14 -5 22 -3 22 4 0 6 5 11 10 11 19 0
10 -16 -21 -34 -25 -15 -33 -16 -42 -6 -9 10 -8 12 6 7 9 -4 17 -2 17 3 0 10
-17 14 -60 12 -18 -1 -21 1 -11 7 14 9 39 8 79 -4z m873 -2 c13 -16 12 -17 -3
-4 -17 13 -22 21 -14 21 2 0 10 -8 17 -17z m-8 -31 c-8 -2 -12 -9 -10 -16 3
-6 -3 -12 -13 -12 -12 0 -17 8 -17 24 0 17 2 20 8 11 4 -7 11 -10 15 -6 4 3 1
14 -7 24 -11 14 -9 13 13 -2 19 -15 22 -21 11 -23z m-913 8 c0 -5 -7 -7 -15
-4 -8 4 -15 8 -15 10 0 2 7 4 15 4 8 0 15 -4 15 -10z m977 -41 c-14 -23 -27
-25 -27 -4 0 9 -6 12 -17 8 -15 -6 -16 -5 -3 9 11 11 17 12 22 4 8 -11 12 -1
9 18 -1 5 5 4 13 -3 12 -10 13 -16 3 -32z m-818 2 c16 -16 17 -20 5 -25 -9 -3
-12 -1 -9 4 3 6 -1 13 -9 16 -9 3 -16 10 -16 15 0 14 8 11 29 -10z m70 -28 c2
-2 -3 -3 -11 -3 -9 0 -19 7 -22 16 -6 15 -4 15 11 3 10 -7 20 -15 22 -16z m68
21 c-3 -3 -12 -4 -19 -1 -8 3 -5 6 6 6 11 1 17 -2 13 -5z m-7 -34 c16 -16 17
-20 5 -20 -8 0 -15 -5 -15 -10 0 -7 -8 -6 -22 2 -13 6 -29 13 -36 14 -8 1 -17
6 -20 10 -8 8 32 1 63 -11 17 -7 16 -5 -4 13 -19 17 -21 22 -8 22 10 0 26 -9
37 -20z m20 10 c0 -5 -2 -10 -4 -10 -3 0 -8 5 -11 10 -3 6 -1 10 4 10 6 0 11
-4 11 -10z m747 -25 c14 -1 49 -24 36 -25 -6 0 -15 5 -18 10 -4 6 -12 7 -18 3
-19 -12 -47 -14 -47 -3 0 6 7 10 15 10 9 0 12 6 9 18 -5 14 -4 15 5 2 6 -8 14
-15 18 -15z m-743 -23 c3 -5 -1 -9 -9 -9 -8 0 -12 4 -9 9 3 4 7 8 9 8 2 0 6
-4 9 -8z m36 -17 c-7 -9 -15 -13 -19 -10 -3 3 1 10 9 15 21 14 24 12 10 -5z
m50 11 c0 -2 -7 -7 -16 -10 -8 -3 -12 -2 -9 4 6 10 25 14 25 6z m717 -18 c-3
-8 -6 -5 -6 6 -1 11 2 17 5 13 3 -3 4 -12 1 -19z m-1642 -17 c196 -34 385 -84
385 -103 0 -5 5 -6 12 -2 8 5 8 3 2 -7 -5 -8 -10 -41 -11 -74 -5 -129 -9 -181
-17 -205 -6 -20 -5 -22 4 -10 10 13 11 12 6 -3 -3 -10 -6 -24 -6 -30 0 -7 -4
-6 -10 3 -7 11 -10 7 -12 -20 -1 -19 -2 -44 -3 -55 -1 -21 39 -55 66 -55 20 0
21 -27 1 -35 -8 -3 -25 1 -38 10 -13 8 -30 15 -38 15 -8 0 -54 13 -103 29
-218 73 -519 109 -759 91 -176 -13 -318 -41 -484 -96 -634 -206 -1121 -712
-1310 -1359 l-27 -90 -94 1 -94 2 85 -12 85 -12 -137 2 c-76 2 -147 5 -158 9
-11 3 -27 2 -37 -4 -15 -8 -12 -11 17 -20 28 -9 29 -10 5 -5 -16 3 -47 8 -67
11 -21 3 -38 8 -38 12 0 4 13 6 29 3 16 -2 41 3 57 12 l29 15 -50 1 c-27 1
-60 3 -72 4 -13 2 -23 -1 -23 -6 0 -4 5 -8 11 -8 5 0 7 -5 4 -10 -4 -6 -2 -16
3 -23 12 -15 20 -97 10 -97 -5 0 -8 17 -8 38 0 20 -5 44 -11 52 -8 12 -9 9 -4
-9 6 -21 5 -22 -8 -10 -9 9 -12 18 -6 24 11 11 12 28 1 21 -15 -9 9 114 45
238 116 400 327 758 623 1057 406 410 896 651 1477 724 159 21 511 13 668 -14z
m965 22 c-8 -3 -18 -11 -22 -17 -9 -14 -22 -1 -13 13 3 6 16 11 28 10 15 0 17
-2 7 -6z m810 -106 c0 -5 -6 -7 -12 -4 -7 2 -13 10 -13 18 0 8 -8 13 -19 11
-10 -2 -16 0 -14 5 3 4 -8 21 -24 37 -15 16 -29 24 -29 17 -1 -6 -2 -16 -3
-23 -1 -13 -26 -24 -26 -11 0 5 7 19 16 31 l15 22 55 -47 c30 -26 54 -51 54
-56z m-870 83 c0 -5 -7 -7 -15 -4 -8 4 -15 8 -15 10 0 2 7 4 15 4 8 0 15 -4
15 -10z m88 -25 c-3 -3 -9 2 -12 12 -6 14 -5 15 5 6 7 -7 10 -15 7 -18z m-30
-5 c12 -20 12 -21 -13 -4 -28 18 -31 24 -12 24 7 0 18 -9 25 -20z m87 -21 c3
-4 -6 -6 -20 -6 -14 0 -27 3 -30 6 -5 9 41 8 50 0z m45 1 c0 -5 -7 -10 -15
-10 -8 0 -15 5 -15 10 0 6 7 10 15 10 8 0 15 -4 15 -10z m645 -19 c-3 -5 0
-13 6 -17 8 -4 7 -9 -2 -16 -14 -10 -1 -7 34 7 15 6 134 -111 124 -122 -4 -3
-13 -1 -19 5 -7 7 -19 12 -27 12 -9 0 -27 12 -40 26 -13 14 -18 24 -11 22 7
-2 15 3 17 10 3 6 -1 10 -9 9 -7 -2 -10 -2 -5 0 17 10 -5 20 -36 16 -24 -3
-38 1 -48 13 -9 11 -9 15 -1 10 6 -4 12 -2 12 3 0 6 -6 11 -12 11 -9 0 -8 4 2
10 19 12 23 12 15 1z m-669 -20 c0 -15 -3 -17 -18 -7 -17 10 -17 11 0 18 9 3
17 7 17 7 1 1 1 -7 1 -18z m80 -26 c-3 -9 0 -15 10 -15 10 0 14 -6 11 -14 -3
-7 0 -19 6 -26 7 -7 0 -5 -14 6 -15 10 -24 23 -21 28 3 5 -2 7 -11 3 -9 -3
-19 -1 -23 5 -4 7 -3 8 5 4 6 -4 14 0 17 8 3 9 11 16 16 16 6 0 8 -7 4 -15z
m-692 -17 c-3 -4 6 -8 20 -8 14 0 27 -4 31 -10 3 -5 13 -7 23 -4 13 5 14 4 3
-4 -7 -5 -9 -12 -5 -14 5 -3 3 -3 -5 -1 -8 2 -11 -2 -7 -12 3 -10 2 -13 -4
-10 -6 4 -9 14 -8 22 2 9 -3 18 -11 21 -8 3 -11 0 -7 -7 9 -15 -7 -14 -22 1
-6 6 -15 8 -19 4 -4 -4 -1 -11 7 -16 13 -9 13 -10 0 -10 -13 0 -13 -1 0 -11
13 -9 13 -10 0 -6 -10 2 -14 15 -14 36 2 29 1 30 -12 14 -13 -17 -13 -17 -14
4 0 18 5 22 24 21 14 -1 22 -6 20 -10z m755 3 c19 -12 23 -41 6 -35 -9 4 -12
-1 -10 -13 2 -10 4 -20 4 -23 1 -3 6 2 11 10 8 13 10 13 10 -2 0 -12 5 -16 18
-12 14 5 15 4 2 -5 -23 -16 -55 10 -55 45 1 16 -4 32 -10 36 -15 11 7 10 24
-1z m-629 -53 c0 -6 8 -7 17 -4 10 4 14 4 10 -1 -5 -4 -24 -8 -43 -9 -26 -1
-32 2 -20 8 9 5 14 13 11 19 -3 5 1 6 9 3 9 -3 16 -11 16 -16z m-167 -55 c-8
-52 -13 -54 -13 -5 0 23 4 42 9 42 6 0 7 -17 4 -37z m217 22 c0 -9 12 -21 28
-27 22 -9 24 -12 9 -15 -10 -3 -27 3 -38 13 -20 18 -26 44 -9 44 6 0 10 -7 10
-15z m46 -1 c13 -2 64 -34 64 -40 0 -10 -20 -3 -35 12 -9 9 -19 14 -22 11 -8
-9 -43 11 -43 24 0 6 6 7 13 2 6 -4 17 -8 23 -9z m630 -10 c-1 -13 -5 -27 -10
-31 -4 -4 -7 -3 -6 2 4 19 0 30 -8 19 -5 -9 -11 -8 -21 3 -11 12 -10 14 5 11
11 -2 18 2 17 8 -1 6 4 11 11 11 7 0 12 -11 12 -23z m649 -35 c22 -22 36 -39
30 -37 -5 2 -11 -1 -12 -7 -2 -5 6 -10 17 -10 23 0 85 -71 70 -80 -5 -3 -10
-11 -10 -17 0 -7 5 -7 14 1 11 9 22 2 53 -36 42 -52 77 -104 78 -115 0 -4 9
-14 20 -22 11 -9 16 -16 11 -16 -5 0 -1 -10 10 -22 19 -23 19 -23 -2 -5 -11 9
-27 17 -35 17 -12 0 -12 2 0 9 10 7 8 10 -10 16 -34 10 -59 35 -59 57 0 13 -4
17 -12 12 -8 -4 -10 -3 -5 2 5 5 13 10 18 10 5 1 12 2 15 3 4 0 1 8 -6 16 -11
13 -15 13 -22 3 -7 -10 -9 -10 -5 2 6 20 -11 52 -24 45 -5 -4 -8 -3 -7 2 2 4
-1 8 -7 8 -5 0 -9 -3 -8 -7 1 -3 -5 -5 -15 -4 -11 2 -17 13 -18 32 -1 16 0 23
3 16 3 -6 9 -9 15 -6 5 3 2 14 -8 25 -9 10 -21 16 -25 13 -5 -3 -6 1 -3 9 9
25 -14 29 -36 7 -11 -11 -20 -17 -21 -12 -1 4 -2 24 -3 44 -1 24 -9 44 -24 58
-12 11 -22 19 -22 16 0 -2 -3 -12 -7 -22 -5 -13 -3 -16 10 -11 9 3 19 2 21 -2
7 -11 -50 -8 -61 3 -4 5 -3 6 5 2 7 -4 12 -2 12 6 0 11 18 38 25 38 1 0 19
-18 40 -41z m-1335 6 c20 -24 6 -28 -15 -5 -10 11 -13 20 -8 20 6 0 16 -7 23
-15z m-233 -47 c-3 -8 -6 -5 -6 6 -1 11 2 17 5 13 3 -3 4 -12 1 -19z m435 -18
c6 0 3 10 -8 23 -19 22 -19 22 2 4 11 -9 23 -15 25 -13 2 3 15 -4 29 -15 18
-14 20 -17 6 -12 -14 5 -17 3 -12 -6 5 -7 16 -11 26 -8 10 2 37 -8 60 -24 42
-28 47 -39 9 -19 -13 7 -19 7 -19 0 0 -5 5 -10 11 -10 5 0 7 -5 3 -11 -4 -8 1
-9 16 -4 14 4 20 3 16 -3 -8 -13 -55 -21 -62 -11 -3 5 0 9 5 9 6 0 11 5 11 11
0 6 -6 9 -13 6 -7 -3 -13 3 -13 13 0 11 6 16 16 13 12 -4 12 -2 -1 9 -10 8
-40 13 -73 13 -31 0 -56 4 -56 8 0 5 8 7 18 5 11 -2 19 2 20 7 0 6 -6 9 -15 7
-8 -2 -24 4 -34 14 -20 18 -27 6 -7 -14 7 -7 8 -12 2 -12 -6 0 -16 11 -22 24
-9 21 -8 25 6 28 9 2 23 -4 30 -14 7 -10 18 -18 24 -18z m533 30 c3 -5 11 -10
16 -10 6 0 7 5 4 10 -3 6 -1 10 4 10 6 0 11 -6 11 -14 0 -7 9 -16 20 -19 11
-3 20 -1 20 4 0 5 -6 9 -12 10 -7 0 -2 5 11 10 31 12 44 -1 32 -32 -5 -13 -10
-18 -10 -11 -2 24 -16 12 -16 -14 0 -19 4 -24 18 -20 15 4 16 2 6 -10 -8 -10
-8 -14 0 -14 6 0 25 -13 42 -29 17 -17 37 -27 44 -25 8 3 22 0 32 -6 16 -10
16 -11 1 -6 -24 7 -23 -9 2 -34 25 -25 41 -26 34 -2 -4 14 -3 13 7 -2 7 -11
12 -31 13 -44 1 -33 19 -38 31 -10 11 26 40 31 40 8 0 -8 -8 -14 -17 -14 -14
1 -15 -2 -5 -17 7 -11 21 -22 32 -26 19 -6 19 -6 -3 -14 -14 -5 -20 -14 -16
-20 5 -8 8 -8 13 0 5 7 14 6 30 -5 17 -12 21 -22 16 -41 -4 -16 -2 -22 5 -18
5 3 10 1 10 -5 0 -6 4 -9 8 -6 4 2 9 -4 9 -15 1 -13 -14 -2 -52 38 -36 39 -51
61 -44 69 6 7 2 17 -11 29 -22 20 -28 8 -7 -15 6 -8 -3 -2 -20 14 -18 17 -33
35 -33 42 0 7 -5 16 -12 20 -7 5 -8 2 -3 -7 4 -8 -23 16 -61 53 -38 37 -91 86
-119 109 -61 51 -97 89 -85 89 5 0 12 -4 15 -10z m-948 -22 c-3 -8 -6 -5 -6 6
-1 11 2 17 5 13 3 -3 4 -12 1 -19z m1593 -38 c0 -5 -2 -10 -4 -10 -3 0 -8 5
-11 10 -3 6 -1 10 4 10 6 0 11 -4 11 -10z m-1593 -47 c-3 -10 -5 -2 -5 17 0
19 2 27 5 18 2 -10 2 -26 0 -35z m1112 6 c36 -35 40 -47 10 -25 -21 14 -54 56
-45 56 2 0 18 -14 35 -31z m26 20 c11 -16 1 -19 -13 -3 -7 8 -8 14 -3 14 5 0
13 -5 16 -11z m-5236 -45 c58 -8 133 -22 166 -30 61 -15 187 -54 194 -60 2 -2
-24 -47 -57 -101 -33 -54 -87 -148 -119 -209 -58 -111 -58 -111 -88 -102 -148
41 -398 52 -550 23 -181 -34 -345 -100 -490 -197 l-79 -54 -101 78 c-55 43
-142 106 -192 140 -51 34 -93 65 -93 68 0 10 130 113 211 168 222 149 483 247
744 281 115 14 339 12 454 -5z m4711 0 c11 -12 11 -15 -1 -12 -9 2 -13 -4 -11
-14 2 -10 -2 -18 -8 -18 -13 0 -13 27 0 35 6 4 8 11 5 16 -10 15 1 10 15 -7z
m607 -40 c1 -5 -8 -14 -20 -20 -22 -10 -23 -9 -13 13 11 22 27 26 33 7z m-536
-11 c10 -11 10 -14 2 -9 -7 4 -13 3 -13 -3 0 -16 22 -25 30 -11 5 8 10 8 14 2
6 -10 -13 -21 -51 -28 -13 -2 -23 0 -23 6 0 5 6 10 14 10 8 0 12 9 11 25 -4
30 -2 30 16 8z m-681 -57 c0 -2 -7 -7 -16 -10 -8 -3 -12 -2 -9 4 6 10 25 14
25 6z m808 -43 c73 -62 283 -275 277 -281 -2 -2 -16 10 -31 27 -14 18 -29 29
-32 26 -3 -2 2 -13 11 -23 15 -17 15 -18 -6 -19 -17 -2 -19 0 -7 7 15 10 10
13 -25 12 l-20 -1 20 6 20 6 -20 8 c-19 7 -19 8 3 8 13 1 21 5 17 11 -3 5 -12
7 -19 4 -7 -3 -16 2 -20 11 -4 11 -13 15 -28 11 -13 -3 -17 -3 -10 0 10 5 9
10 -4 25 -14 15 -20 17 -26 7 -6 -9 -7 -6 -3 8 6 24 -18 50 -36 38 -7 -4 -9
-3 -6 3 4 6 -2 18 -13 28 -14 13 -20 14 -20 5 0 -7 -3 -11 -6 -8 -3 4 -1 15 5
26 8 15 7 23 -3 31 -7 6 -17 7 -21 3 -5 -4 -5 -1 0 6 5 10 2 13 -11 10 -11 -2
-18 -10 -16 -16 1 -7 -7 -12 -18 -12 -11 0 -20 7 -20 15 0 8 5 15 11 15 5 0 7
-5 3 -12 -4 -7 -3 -8 5 -4 6 4 8 12 5 18 -5 7 -2 8 6 3 8 -5 11 -4 6 3 -4 6
-12 10 -19 8 -7 -1 -8 -1 -4 2 4 2 3 10 -4 18 -24 29 6 12 59 -33z m-793 27
c-3 -5 -12 -10 -18 -10 -7 0 -6 4 3 10 19 12 23 12 15 0z m1715 -35 c20 -24 6
-28 -15 -5 -10 11 -13 20 -8 20 6 0 16 -7 23 -15z m-1645 -35 l20 -9 -20 -1
c-19 -1 -19 -1 -2 -11 10 -6 25 -8 34 -5 12 5 13 9 3 21 -9 10 -9 15 -1 15 6
0 16 -9 23 -20 7 -11 16 -20 20 -20 12 0 10 28 -2 33 -6 3 -5 4 2 3 8 -2 13
-17 13 -39 -1 -29 3 -37 22 -42 13 -3 23 -10 23 -16 0 -6 5 -7 12 -3 6 4 16 1
22 -7 6 -8 20 -20 31 -27 11 -7 34 -21 50 -32 34 -23 56 -26 53 -7 -2 6 3 12
11 12 8 0 16 -6 19 -12 2 -7 -4 -13 -13 -13 -9 0 -13 -5 -10 -10 4 -6 10 -8
14 -6 4 3 8 -1 8 -9 0 -8 -7 -15 -14 -15 -8 0 -11 5 -8 10 5 9 -1 12 -21 9 -4
0 -10 4 -13 9 -5 8 -114 77 -174 109 -12 7 -21 19 -19 28 2 8 -4 15 -13 15 -9
0 -14 -4 -10 -10 3 -5 -17 0 -45 12 -32 13 -47 24 -39 29 8 5 6 8 -7 12 -11 3
-13 5 -4 5 8 0 24 -3 35 -8z m1275 -26 c0 -3 -7 -1 -15 6 -8 7 -15 17 -15 22
0 5 7 3 15 -6 8 -8 15 -18 15 -22z m454 -13 c-6 -6 -34 -11 -34 -6 0 2 3 10 6
19 5 12 9 13 19 3 7 -7 11 -14 9 -16z m-8849 -7 c555 -60 1109 -275 1548 -602
141 -104 257 -203 257 -217 0 -7 -7 -18 -15 -25 -19 -16 -19 -26 1 -34 21 -8
33 2 16 13 -10 6 -10 10 1 19 11 9 18 7 33 -11 l19 -22 -22 19 c-13 11 -23 14
-23 9 0 -17 29 -36 45 -30 17 7 30 -9 15 -18 -12 -7 -4 -25 11 -25 6 0 7 5 4
10 -10 17 4 11 25 -10 21 -21 27 -35 10 -25 -5 3 -10 2 -10 -4 0 -15 18 -23
25 -11 4 6 11 8 16 4 6 -3 5 -12 -3 -22 -11 -13 -11 -15 3 -10 11 4 32 -9 64
-42 46 -47 47 -48 30 -73 -12 -20 -13 -26 -3 -30 9 -4 8 -6 -3 -6 -21 -1 -34
28 -19 43 14 14 13 29 -2 20 -7 -4 -8 -3 -4 4 6 11 -5 16 -26 13 -4 0 -5 12
-3 27 2 15 2 21 -1 14 -4 -9 -16 -3 -41 18 -19 17 -39 27 -45 24 -7 -4 -8 -2
-4 5 10 15 -13 43 -30 37 -8 -3 -11 4 -10 19 2 17 -3 25 -18 29 -11 3 -25 1
-30 -4 -5 -5 -15 -2 -24 7 -14 14 -18 13 -34 -8 -11 -13 -32 -39 -49 -57 -31
-35 -37 -48 -16 -36 6 4 9 4 5 0 -3 -4 -9 -6 -11 -4 -9 5 -57 -44 -51 -53 9
-15 24 -10 18 5 -3 8 -1 16 4 20 5 3 8 -5 7 -17 -1 -14 -9 -22 -21 -23 -40 -2
-43 -4 -37 -21 4 -10 2 -14 -4 -10 -11 7 -70 -52 -65 -65 7 -22 -29 -1 -102
60 -409 346 -914 569 -1437 636 -528 68 -1067 -21 -1544 -253 -305 -148 -508
-293 -751 -535 -237 -238 -392 -455 -536 -752 -37 -78 -68 -146 -68 -153 0
-17 -22 -14 -139 20 -197 56 -301 92 -301 105 0 42 166 376 268 539 602 964
1675 1541 2802 1508 74 -2 198 -11 275 -19z m8412 -14 c1 -11 -2 -18 -8 -15
-11 7 -12 35 -1 35 4 0 8 -9 9 -20z m-527 2 c0 -5 -7 -9 -15 -9 -8 0 -12 4 -9
9 3 4 9 8 15 8 5 0 9 -4 9 -8z m-523 -24 c-12 -8 -87 -2 -95 7 -3 3 20 4 50 2
31 -1 51 -5 45 -9z m1323 2 c-20 -13 -33 -13 -25 0 3 6 14 10 23 10 15 0 15
-2 2 -10z m105 -1 c3 -4 1 -10 -6 -15 -8 -5 -10 -3 -4 6 5 8 3 11 -6 8 -8 -3
-14 -10 -14 -15 0 -20 -13 -25 -32 -14 -10 6 -12 11 -5 11 6 0 12 4 12 10 0 5
-8 7 -17 4 -13 -4 -14 -3 -5 3 14 10 67 11 77 2z m-1421 -39 c-5 -5 -20 -2
-34 6 l-25 15 28 -6 c18 -3 27 -1 28 7 0 10 2 10 6 0 3 -8 1 -18 -3 -22z
m1324 8 c-4 -28 -38 -38 -37 -11 0 10 3 13 6 5 2 -6 9 -10 13 -7 5 3 7 12 3
20 -3 8 0 15 7 15 6 0 10 -10 8 -22z m-2209 -14 c121 -17 193 -34 303 -70 l78
-26 -16 -36 c-9 -20 -17 -44 -17 -52 0 -8 -7 -21 -15 -29 -10 -10 -11 -16 -3
-19 6 -2 24 11 39 28 l29 31 7 -32 c11 -58 10 -61 -36 -57 -35 2 -43 0 -42
-14 1 -9 -4 -19 -12 -22 -10 -4 -11 1 -3 21 16 43 5 35 -21 -15 -14 -26 -35
-58 -47 -72 -13 -14 -21 -31 -18 -37 2 -7 1 -12 -3 -12 -19 3 -23 -2 -12 -15
6 -8 19 -12 28 -9 15 6 15 5 3 -10 -17 -21 -31 -22 -31 -2 0 24 -13 17 -45
-25 -16 -22 -36 -37 -43 -35 -7 3 -59 15 -115 27 -130 27 -371 29 -487 4 -401
-88 -709 -320 -892 -671 -26 -49 -48 -85 -48 -80 0 19 -48 14 -53 -6 -3 -11
-11 -19 -17 -19 -10 0 -10 3 0 14 14 18 9 18 -150 5 -104 -9 -172 -14 -238
-18 -13 0 -20 -5 -17 -11 3 -5 2 -10 -4 -10 -22 0 -20 24 11 117 140 425 483
810 898 1006 166 80 303 123 460 146 41 6 86 13 100 15 71 10 333 4 429 -10z
m2206 -29 c-21 -18 -43 -31 -47 -29 -4 3 -8 0 -8 -7 0 -7 -3 -10 -6 -7 -9 10
20 48 34 43 7 -2 20 4 30 14 9 11 22 20 27 20 6 0 -8 -15 -30 -34z m-735 15
c0 -5 -2 -10 -4 -10 -3 0 -8 5 -11 10 -3 6 -1 10 4 10 6 0 11 -4 11 -10z m535
-31 c0 -20 -47 -18 -50 2 -2 11 5 15 24 14 15 0 26 -7 26 -16z m131 5 c-9 -6
-14 -18 -11 -26 3 -8 -4 -23 -17 -33 -13 -11 -17 -13 -10 -5 14 17 16 34 2 25
-5 -3 -10 -1 -10 5 0 7 7 10 14 7 10 -4 13 -1 9 8 -3 8 -9 12 -14 9 -5 -3 -6
1 -4 8 3 8 17 14 31 14 22 0 24 -2 10 -12z m-130 -49 c-6 -17 34 -31 59 -21
13 4 14 2 5 -14 -6 -11 -16 -20 -23 -20 -15 0 -46 20 -32 20 6 0 2 5 -7 11
-15 8 -15 39 -1 39 3 0 3 -7 -1 -15z m-987 -22 c-4 -22 2 -35 14 -30 8 3 13
-3 13 -15 0 -18 -3 -17 -23 7 -13 14 -21 31 -18 36 7 11 15 12 14 2z m-610
-45 c1 -4 -6 -5 -14 -1 -9 3 -22 -2 -31 -13 -13 -17 -13 -17 -3 8 7 15 16 25
20 22 5 -3 9 3 10 13 0 16 1 16 9 -2 5 -11 9 -23 9 -27z m1269 -1 c14 -15 21
-27 14 -27 -6 0 -12 5 -12 11 0 8 -4 8 -13 1 -22 -19 -52 -8 -52 20 -1 33 27
30 63 -5z m-1224 12 c-4 -8 1 -9 16 -4 15 5 20 3 16 -3 -3 -6 -2 -13 4 -17 5
-3 10 -2 10 4 0 6 7 8 15 5 21 -8 19 -25 -2 -21 -20 3 -93 37 -93 43 0 2 9 4
21 4 12 0 17 -4 13 -11z m-14 -23 c9 -12 8 -15 -8 -13 -12 0 -18 6 -15 14 6
16 8 16 23 -1z m690 -26 c3 -3 14 -10 24 -16 30 -16 44 -43 28 -53 -9 -6 -8
-12 8 -26 11 -10 20 -13 20 -7 0 18 25 14 44 -6 17 -20 18 -53 1 -62 -5 -3 -9
8 -10 25 0 22 -5 30 -20 33 -18 2 -18 2 -2 -8 9 -6 17 -16 17 -23 0 -6 -27 15
-59 47 -34 34 -57 64 -54 72 3 8 1 14 -5 14 -6 0 -12 -5 -14 -11 -2 -6 -11 -2
-21 9 -17 19 -17 19 10 18 15 0 30 -3 33 -6z m75 -28 c-6 -7 -35 18 -35 31 0
5 9 2 20 -8 11 -10 18 -20 15 -23z m-615 11 c0 10 88 -39 125 -70 l30 -25 -32
16 c-40 20 -53 20 -53 0 0 -8 4 -13 9 -10 5 4 20 1 33 -4 22 -10 22 -10 -4 -5
-23 4 -28 2 -28 -15 0 -37 -15 -20 -17 20 -2 22 2 40 8 40 6 0 7 5 4 10 -3 6
-13 10 -21 10 -8 0 -12 -4 -9 -10 8 -12 -5 -13 -24 -1 -11 7 -11 10 0 17 10 6
8 10 -10 14 -14 3 -26 12 -29 20 -3 13 -2 13 7 0 6 -8 11 -12 11 -7z m1153
-28 c31 -39 29 -47 -3 -13 -11 12 -20 17 -20 11 0 -7 7 -18 15 -26 8 -8 11
-18 7 -22 -4 -4 3 -4 15 -1 33 10 34 -6 2 -32 -20 -16 -27 -19 -23 -8 3 9 11
16 18 16 6 0 4 5 -4 10 -21 14 -33 12 -27 -3 2 -7 -5 -25 -17 -40 -20 -25 -24
-27 -36 -12 -7 9 -9 15 -4 14 23 -4 33 2 27 18 -5 12 -3 14 8 8 12 -8 12 -6 0
8 -9 12 -10 21 -3 30 17 20 17 23 4 40 -13 15 -9 37 6 37 4 0 20 -16 35 -35z
m-458 -63 c-6 -7 -35 18 -35 31 0 5 9 2 20 -8 11 -10 18 -20 15 -23z m-495
-27 c0 -2 -5 -7 -12 -11 -7 -4 -8 -3 -4 4 4 7 2 12 -3 12 -6 0 -11 -4 -11 -10
0 -5 -5 -10 -11 -10 -5 0 -7 5 -4 10 3 6 1 10 -4 10 -6 0 -11 -5 -11 -12 0 -6
-3 -8 -7 -4 -15 14 28 36 48 25 11 -5 19 -12 19 -14z m-481 5 c11 16 27 7 16
-9 -11 -18 -45 -13 -45 7 0 14 2 15 10 2 9 -13 11 -13 19 0z m1318 -34 c-3 -8
1 -17 9 -20 12 -5 14 -1 9 17 -7 22 -7 22 8 2 17 -23 6 -35 -24 -28 -19 5 -25
24 -12 36 11 11 15 8 10 -7z m-796 -26 c6 0 7 6 2 13 -4 6 12 -3 35 -21 46
-37 47 -38 32 -47 -6 -4 -9 -1 -8 6 2 7 -3 14 -9 15 -7 1 -15 2 -18 3 -3 0 -8
1 -12 2 -14 1 -43 32 -42 43 0 6 3 6 6 -1 2 -7 9 -13 14 -13z m456 -5 c0 -8
-4 -12 -9 -9 -5 3 -6 10 -3 15 9 13 12 11 12 -6z m-4904 -39 c37 -7 70 -15 72
-18 3 -3 -17 -72 -44 -154 -79 -237 -141 -520 -158 -711 -3 -40 -9 -73 -12
-73 -4 0 -25 30 -46 68 -117 199 -305 448 -466 616 l-93 98 24 19 c79 60 257
133 385 157 74 14 261 13 338 -2z m4987 -5 c0 -6 -5 -13 -10 -16 -7 -4 -6 -14
1 -28 9 -20 9 -20 -4 -5 -8 10 -16 16 -19 13 -2 -3 -5 2 -5 10 0 8 4 12 9 9 4
-3 8 2 8 10 0 9 5 16 10 16 6 0 10 -4 10 -9z m119 -11 c-13 -10 -18 -19 -11
-20 6 0 12 3 12 8 0 4 11 12 25 19 14 6 25 7 25 2 0 -5 0 -12 0 -16 0 -5 -4
-8 -9 -8 -5 0 -13 -3 -17 -7 -4 -5 -16 -8 -26 -8 -11 0 -17 -4 -14 -9 3 -5 -1
-12 -9 -15 -12 -4 -13 -2 -6 13 7 12 6 22 -2 31 -10 10 -9 11 2 5 10 -6 13 -4
9 6 -4 10 2 15 19 17 l25 2 -23 -20z m2667 -97 c-19 -379 -42 -622 -87 -923
-41 -274 -147 -768 -184 -856 -41 -98 -346 -423 -580 -619 -1015 -848 -2689
-1597 -4685 -2095 -1155 -289 -2363 -484 -3535 -570 -266 -19 -731 -40 -906
-40 -97 0 -178 -2 -181 -5 -5 -6 -431 -5 -628 1 -211 6 -407 14 -435 19 -16 2
-84 7 -150 11 -188 10 -224 13 -325 24 -73 9 -95 9 -98 0 -3 -9 -6 -9 -12 0
-4 7 -25 14 -46 15 -52 3 -267 32 -429 56 -71 10 -143 21 -160 24 -71 10 -482
96 -615 128 -308 75 -698 202 -896 292 -42 19 -79 34 -81 31 -6 -5 218 -283
348 -431 135 -153 411 -433 560 -566 800 -717 1723 -1244 2759 -1575 91 -29
158 -53 149 -54 -26 0 -400 106 -584 166 -530 174 -1052 410 -1510 682 -828
493 -1529 1132 -2106 1919 -548 747 -967 1627 -1234 2588 -20 72 -39 138 -42
149 -7 26 67 -26 153 -106 146 -137 234 -286 329 -558 74 -211 170 -459 189
-486 31 -44 420 -223 696 -321 338 -120 928 -271 1015 -259 28 4 34 2 20 -4
-11 -5 -15 -9 -9 -9 6 -1 65 -10 130 -22 66 -11 130 -22 144 -24 14 -2 99 -15
188 -29 90 -14 168 -24 173 -21 5 3 17 1 27 -4 10 -5 53 -12 96 -15 43 -3 81
-8 84 -10 4 -2 45 -7 92 -10 47 -3 96 -8 110 -11 27 -5 158 -15 268 -21 39 -1
75 -5 80 -7 4 -2 30 -5 57 -5 28 -1 169 -9 315 -18 339 -20 1345 -14 1745 10
1158 72 2227 217 3350 456 2054 436 3941 1161 5170 1985 328 220 557 406 811
660 177 177 334 369 424 518 19 31 36 57 38 57 2 0 1 -53 -2 -117z m-3243 80
c-4 -10 -2 -14 4 -10 6 4 18 1 26 -7 8 -8 16 -14 18 -13 2 1 3 0 1 -3 -2 -3
-19 -5 -37 -5 -25 -1 -32 2 -24 11 7 8 6 14 -3 17 -10 4 -10 8 2 16 20 14 20
14 13 -6z m-715 -21 c-3 -11 2 -23 13 -30 26 -17 38 -14 15 3 -10 7 -15 18
-11 24 8 14 35 14 35 0 0 -5 -5 -7 -11 -3 -7 4 -10 1 -7 -7 3 -8 10 -13 15
-12 5 1 10 -4 10 -12 0 -8 -4 -12 -9 -9 -4 3 -8 0 -8 -6 0 -8 10 -10 28 -6 15
3 21 3 14 0 -6 -3 -10 -10 -7 -14 3 -5 -8 -5 -24 1 -16 6 -32 17 -35 25 -3 8
-10 14 -16 14 -6 0 -9 -4 -6 -9 4 -5 -4 -6 -16 -3 -17 4 -19 7 -7 10 11 2 15
10 11 27 -3 16 0 25 8 25 7 0 10 -8 8 -18z m124 -45 c4 -6 4 -15 2 -19 -7 -11
-25 -10 -21 1 1 5 -7 17 -18 26 -20 16 -19 16 5 9 14 -4 28 -11 32 -17z m662
8 c-5 -12 -2 -14 12 -8 17 6 17 5 5 -10 -12 -15 -12 -17 1 -12 17 7 71 -33 63
-46 -4 -5 -1 -9 5 -9 13 0 51 -61 44 -72 -3 -5 -9 -6 -14 -3 -4 3 -10 -1 -13
-9 -3 -7 -15 -16 -26 -19 -12 -3 -19 -1 -16 3 3 5 1 11 -5 15 -5 3 -10 -3 -10
-13 0 -17 -18 -33 -36 -31 -4 0 -11 -5 -15 -13 -7 -10 -9 -9 -9 3 0 21 26 43
41 34 8 -6 8 -2 0 14 -7 11 -10 21 -9 22 2 1 14 2 28 3 14 0 31 5 38 9 6 5 17
5 22 2 18 -11 10 12 -10 30 -20 18 -21 18 -14 -1 4 -11 3 -16 -2 -11 -5 5 -9
21 -9 35 0 17 -6 26 -14 24 -7 -1 -10 2 -6 8 3 5 1 10 -4 10 -6 0 -11 -6 -12
-12 0 -10 -2 -10 -6 0 -2 6 -9 12 -14 12 -6 0 -8 -4 -5 -8 3 -5 -1 -9 -9 -9
-11 0 -12 4 -4 14 7 8 7 13 2 13 -8 0 -11 35 -4 48 5 10 9 -1 5 -13z m407 -2
c13 -17 13 -17 -6 -3 -11 8 -22 16 -24 17 -2 2 0 3 6 3 6 0 17 -8 24 -17z m39
11 c0 -8 -19 -13 -24 -6 -3 5 1 9 9 9 8 0 15 -2 15 -3z m-1106 -66 c-3 -4 -11
-5 -19 -1 -21 7 -19 12 4 10 11 0 18 -5 15 -9z m162 -40 c0 -15 -4 -24 -10
-21 -5 4 -7 -1 -3 -10 3 -9 2 -19 -4 -22 -5 -4 -13 4 -18 17 -6 13 -10 17 -10
10 -1 -10 -5 -10 -21 0 -14 9 -16 14 -7 20 7 4 8 8 2 8 -17 1 34 26 53 26 13
0 18 -8 18 -28z m-91 13 c3 -5 0 -13 -6 -17 -7 -4 -9 -3 -5 4 3 6 -3 12 -16
15 -23 4 -23 4 -1 6 12 0 24 -3 28 -8z m-6826 -61 c398 -70 763 -228 1080
-465 154 -116 419 -378 425 -422 2 -10 8 -18 14 -18 7 0 11 -3 10 -6 -2 -3 10
-17 26 -31 20 -17 26 -27 17 -32 -7 -5 -10 -2 -9 6 2 7 -3 12 -10 10 -8 -1
-11 1 -9 5 3 5 -6 16 -19 26 -13 10 -24 13 -24 7 0 -6 -5 -8 -11 -4 -8 5 -8 9
1 14 8 5 9 10 2 14 -6 4 -8 14 -5 24 6 15 5 15 -11 3 -9 -8 -16 -10 -15 -5 4
23 -2 26 -16 8 -11 -13 -14 -14 -13 -4 2 8 9 20 17 26 10 8 11 13 3 18 -7 4
-12 4 -12 -1 0 -4 -8 -18 -18 -31 l-18 -23 1 41 c1 23 -2 43 -7 46 -4 3 -4 12
-1 21 4 11 3 14 -5 9 -7 -4 -12 -14 -12 -22 0 -8 -5 -12 -10 -9 -7 4 -7 12 0
24 12 23 2 33 -20 21 -13 -7 -20 -6 -24 6 -3 8 1 17 9 20 11 5 12 9 2 19 -7 7
-15 11 -19 9 -4 -2 -19 7 -35 21 -15 13 -22 25 -15 25 7 0 10 4 7 10 -7 11
-75 -47 -75 -64 1 -6 11 2 24 18 17 20 26 25 31 16 5 -9 4 -11 -3 -6 -15 9
-16 -6 -1 -21 8 -8 8 -13 0 -18 -6 -3 -11 -3 -10 2 4 20 -2 23 -17 8 -9 -9
-23 -14 -30 -11 -20 8 -42 -19 -39 -48 2 -15 -1 -24 -5 -21 -5 3 -6 13 -3 23
6 15 4 15 -16 -2 -16 -15 -19 -22 -9 -29 9 -6 8 -7 -4 -4 -9 3 -26 -2 -37 -12
-16 -14 -18 -20 -8 -30 10 -11 8 -12 -9 -7 -14 4 -26 1 -35 -11 -8 -9 -9 -14
-2 -10 6 4 14 3 17 -1 3 -5 -7 -9 -22 -8 -16 0 -26 -4 -24 -12 1 -7 -4 -12
-11 -12 -8 0 -22 -9 -32 -20 -10 -11 -22 -20 -27 -20 -5 0 -46 29 -91 64 -621
483 -1437 570 -2132 227 -371 -184 -658 -454 -861 -812 -37 -66 -70 -119 -73
-119 -13 0 -340 62 -403 76 l-67 15 35 77 c186 409 520 795 904 1045 302 196
661 329 1030 381 162 23 566 15 729 -14z m6991 -10 c-13 -9 -13 -10 0 -10 13
0 13 -1 0 -10 -8 -5 -10 -10 -5 -10 6 0 11 -9 12 -20 2 -18 0 -18 -13 -6 -8 8
-14 19 -14 25 0 6 -5 11 -11 11 -5 0 -7 -5 -3 -12 4 -7 3 -8 -5 -4 -6 4 -8 12
-5 18 5 7 1 9 -9 5 -9 -3 -19 -2 -22 3 -3 5 8 7 25 5 16 -2 30 0 30 5 0 6 8
10 18 10 14 0 15 -2 2 -10z m430 -14 c0 -3 -4 -8 -10 -11 -5 -3 -10 -1 -10 4
0 6 5 11 10 11 6 0 10 -2 10 -4z m-1110 -55 c0 -6 -10 -17 -22 -26 -13 -8 -23
-21 -23 -27 0 -6 -6 -13 -14 -16 -9 -3 -11 0 -6 9 5 8 0 6 -12 -3 -11 -10 -24
-18 -30 -18 -6 0 -13 -4 -15 -9 -4 -10 -121 -76 -195 -110 -29 -13 -50 -28
-47 -32 3 -5 -2 -6 -10 -3 -8 3 -31 -2 -51 -11 -33 -16 -34 -19 -18 -31 21
-16 10 -18 -18 -4 -11 6 -25 7 -32 3 -6 -4 -18 -8 -26 -10 -7 -1 -18 -6 -24
-12 -6 -6 6 -6 32 1 36 9 45 8 59 -6 9 -9 11 -16 5 -16 -7 0 -15 5 -18 10 -3
6 -11 10 -16 10 -6 0 -8 -3 -5 -8 2 -4 -19 -6 -47 -5 -33 1 -77 -6 -122 -21
-38 -13 -86 -27 -105 -31 -19 -4 -41 -12 -48 -17 -7 -6 -29 -12 -50 -13 -20
-1 -42 -3 -49 -4 -7 0 -10 -9 -7 -18 5 -17 5 -17 -6 0 -14 22 16 62 123 164
128 122 304 213 477 248 76 15 320 20 320 6z m756 -29 c-14 -15 -14 -18 7 -42
l22 -25 -27 24 c-16 14 -26 27 -23 29 3 3 -3 11 -13 19 -15 13 -15 13 6 3 18
-9 22 -8 22 5 0 9 5 13 11 9 7 -4 6 -11 -5 -22z m317 16 c-2 -5 -10 -8 -17 -8
-8 0 -19 -7 -26 -15 -7 -9 -15 -13 -18 -10 -3 3 -11 0 -18 -6 -8 -7 -14 -7
-19 1 -3 5 -11 10 -17 10 -6 0 -5 -7 3 -17 13 -15 12 -15 -9 -2 -12 8 -18 15
-12 17 5 2 10 8 10 13 0 6 -6 7 -12 3 -10 -6 -10 -5 -1 8 10 11 30 15 77 14
35 -1 62 -4 59 -8z m-968 -7 c6 -1 2 -6 -8 -12 -10 -6 -25 -8 -33 -5 -8 3 -14
1 -14 -3 0 -5 6 -12 13 -14 9 -4 9 -6 0 -6 -16 -1 -26 17 -20 33 5 12 21 13
62 7z m-85 -11 c0 -5 -7 -10 -16 -10 -8 0 -12 5 -9 10 3 6 10 10 16 10 5 0 9
-4 9 -10z m199 -26 c52 -10 49 -20 -4 -18 -31 1 -59 5 -62 8 -9 9 -25 7 -20
-1 3 -5 -7 -9 -21 -9 -15 -1 -21 1 -13 3 11 5 11 7 0 14 -9 6 5 8 36 4 38 -4
46 -2 35 6 -12 9 -11 10 5 4 11 -4 31 -9 44 -11z m-189 -4 c0 -5 -6 -10 -12
-11 -7 0 -23 -2 -36 -3 -40 -5 -4 16 41 23 4 0 7 -3 7 -9z m-4620 -39 c0 -11
-8 -29 -18 -42 -19 -22 -19 -22 -24 -1 -4 15 -2 19 9 15 12 -5 14 -1 8 15 -4
14 -2 22 5 22 6 0 8 5 4 12 -4 7 -3 8 4 4 7 -4 12 -15 12 -25z m5414 4 c6 -18
27 -20 24 -3 -2 6 5 14 15 16 11 2 17 -2 16 -15 0 -10 -3 -13 -6 -5 -2 6 -9
12 -14 12 -6 0 -8 -4 -5 -9 3 -5 -1 -14 -9 -21 -10 -8 -15 -9 -15 -2 0 7 -7 9
-17 5 -11 -4 -14 -3 -9 5 4 7 2 12 -4 12 -6 0 -8 5 -5 10 9 15 22 12 29 -5z
m90 3 c-3 -4 -9 -8 -15 -8 -5 0 -9 4 -9 8 0 5 7 9 15 9 8 0 12 -4 9 -9z
m-1032 -30 c-6 -6 -15 -8 -19 -4 -4 4 -1 11 7 16 19 12 27 3 12 -12z m423 12
c-3 -6 1 -7 9 -4 9 3 16 2 16 -4 0 -5 -9 -12 -20 -15 -15 -4 -20 0 -20 14 0
10 5 19 11 19 5 0 7 -4 4 -10z m80 -43 c-3 -11 -7 -22 -11 -26 -4 -3 -5 1 -2
10 4 9 2 22 -3 30 -7 12 -9 12 -9 0 0 -17 -13 -6 -16 14 -2 11 3 11 21 3 16
-7 22 -17 20 -31z m-535 13 c0 -5 -7 -10 -15 -10 -9 0 -18 -7 -22 -16 -5 -12
-7 -13 -14 -2 -5 8 -1 17 14 25 27 15 37 16 37 3z m465 -10 c-3 -5 -12 -10
-18 -10 -7 0 -6 4 3 10 19 12 23 12 15 0z m138 -35 c22 -19 37 -40 34 -47 -2
-7 0 -22 6 -32 8 -16 6 -18 -7 -13 -9 4 -16 2 -16 -4 0 -6 -4 -8 -9 -4 -5 3
-12 1 -16 -5 -8 -13 -46 -33 -44 -23 3 19 -2 33 -11 33 -6 0 -10 -6 -9 -12 3
-28 -2 -38 -18 -38 -17 1 -17 1 -1 11 9 5 15 15 12 23 -3 7 2 19 11 26 17 14
21 35 3 24 -7 -4 -8 -3 -4 4 4 6 13 9 21 5 8 -3 15 0 15 6 0 6 8 11 18 11 12
1 9 5 -10 16 -16 8 -28 23 -28 34 0 28 9 25 53 -15z m-683 -7 c-11 -12 -22
-19 -26 -16 -7 8 29 46 38 41 4 -2 -1 -14 -12 -25z m-4444 -23 c1 -14 -2 -25
-6 -25 -6 0 -7 36 -1 48 4 7 6 -1 7 -23z m4401 -7 c-3 -7 -5 -2 -5 12 0 14 2
19 5 13 2 -7 2 -19 0 -25z m673 17 c7 -9 8 -15 2 -15 -5 0 -12 7 -16 15 -3 8
-4 15 -2 15 2 0 9 -7 16 -15z m-4790 -15 c0 -5 -4 -12 -10 -15 -5 -3 -10 0
-10 7 0 9 -3 9 -10 -2 -11 -17 -13 -10 -4 14 6 15 34 11 34 -4z m4195 10 c-3
-5 -13 -10 -21 -10 -8 0 -12 5 -9 10 3 6 13 10 21 10 8 0 12 -4 9 -10z m-107
-12 c-2 -6 -10 -13 -16 -14 -7 -1 -8 0 -2 3 5 2 8 9 4 14 -3 5 0 9 6 9 7 0 10
-5 8 -12z m835 -41 c-5 -9 -33 18 -33 32 0 6 8 3 18 -6 11 -10 17 -21 15 -26z
m-4784 -74 c-7 -7 -6 -14 1 -18 5 -3 10 0 10 7 1 8 6 6 15 -5 7 -11 11 -26 8
-34 -5 -12 -7 -12 -14 -2 -4 7 -5 17 -2 23 3 5 1 6 -5 2 -6 -4 -9 -13 -5 -21
3 -10 -1 -15 -13 -15 -15 0 -16 2 -5 9 8 5 9 11 3 15 -11 7 -11 24 1 43 9 14
-2 21 -26 18 -9 -2 -15 1 -11 6 3 5 0 9 -7 9 -9 0 -9 4 1 15 10 12 15 10 35
-13 16 -18 20 -31 14 -39z m-505 5 c-3 -4 -12 -4 -22 -1 -15 6 -15 5 -3 -10 7
-9 17 -14 22 -11 15 9 5 -20 -11 -33 -13 -11 -13 -12 3 -7 9 3 17 2 17 -3 0
-5 17 -8 38 -7 37 1 39 0 38 -30 -1 -17 -4 -36 -9 -43 -4 -6 -3 -14 2 -17 5
-4 11 -3 14 1 2 5 2 3 1 -4 -2 -6 5 -17 13 -25 15 -11 16 -11 9 7 -7 19 -6 19
10 3 9 -9 13 -21 9 -28 -5 -8 -20 0 -46 26 -21 20 -36 41 -33 46 3 4 -2 8 -10
8 -9 0 -16 7 -16 15 0 8 -5 14 -12 13 -7 -2 -12 4 -13 12 0 8 -5 15 -11 15 -7
0 -24 12 -39 28 -25 24 -25 32 -2 28 4 0 7 4 7 9 0 6 -4 10 -10 10 -5 0 0 11
12 25 l22 25 12 -22 c7 -13 10 -26 8 -30z m5001 -6 c-3 -3 -11 0 -18 7 -9 10
-8 11 6 5 10 -3 15 -9 12 -12z m41 7 c5 -8 8 -8 14 0 5 9 10 7 20 -4 11 -13
10 -14 -5 -9 -14 6 -16 4 -10 -7 7 -12 6 -12 -7 -1 -14 11 -18 10 -26 -4 -8
-14 -13 -14 -28 -5 -10 7 -12 10 -4 8 20 -6 45 19 27 26 -9 4 -9 6 0 6 6 1 15
-4 19 -10z m-879 -21 c0 -13 -1 -17 -4 -10 -3 6 -11 12 -19 12 -9 0 -12 5 -9
10 11 18 31 10 32 -12z m827 -20 c7 -5 4 -8 -6 -8 -12 0 -18 7 -17 23 0 15 2
17 6 7 3 -8 11 -18 17 -22z m-903 15 c-17 -3 -20 -7 -12 -13 9 -5 3 -11 -18
-18 -24 -8 -30 -8 -25 0 5 8 1 9 -10 5 -11 -4 -15 -3 -10 4 3 6 17 8 30 5 13
-4 24 -3 23 1 -3 18 2 23 24 22 21 -2 21 -2 -2 -6z m42 -20 c-7 -2 -19 -2 -25
0 -7 3 -2 5 12 5 14 0 19 -2 13 -5z m-140 -20 c-7 -2 -19 -2 -25 0 -7 3 -2 5
12 5 14 0 19 -2 13 -5z m145 0 c-10 -2 -28 -2 -40 0 -13 2 -5 4 17 4 22 1 32
-1 23 -4z m612 -33 c5 0 8 6 6 13 -1 6 -1 9 1 5 3 -5 9 -8 14 -8 6 0 8 4 5 8
-7 12 38 10 47 -2 4 -7 10 -8 15 -1 10 14 82 15 82 2 0 -6 -3 -7 -6 -4 -4 3
-16 2 -27 -4 -14 -8 -18 -8 -13 0 12 18 -10 12 -25 -7 -8 -9 -13 -15 -12 -13
2 2 -5 9 -14 16 -23 17 -77 -10 -70 -35 3 -11 0 -17 -7 -14 -6 2 -12 21 -12
42 -1 20 1 29 3 20 3 -10 8 -18 13 -18z m-929 -3 c-15 -19 -1 -30 18 -14 14
11 14 10 2 -5 -11 -15 -11 -18 0 -19 10 0 11 -2 2 -6 -7 -2 -13 -10 -13 -17 0
-18 -30 -42 -60 -50 -14 -3 -19 -3 -12 0 6 3 10 10 6 15 -3 5 5 9 16 9 13 0
24 8 27 20 3 11 10 20 15 20 5 0 6 5 3 10 -3 6 -11 10 -17 10 -6 0 -8 -3 -5
-6 8 -8 -11 -44 -23 -44 -4 0 -1 15 7 33 18 35 33 57 40 57 3 0 0 -6 -6 -13z
m996 -13 c-9 -9 -28 6 -21 18 4 6 10 6 17 -1 6 -6 8 -13 4 -17z m-4190 -17
c10 -11 12 -17 6 -13 -8 4 -13 1 -13 -9 0 -9 -5 -13 -11 -9 -6 3 -9 15 -6 25
3 12 0 19 -8 19 -8 0 -16 4 -19 9 -11 18 33 -1 51 -22z m4163 3 c0 -5 -7 -7
-15 -4 -8 4 -12 10 -9 15 6 11 24 2 24 -11z m-4205 -9 c3 -5 2 -12 -3 -15 -5
-3 -9 1 -9 9 0 17 3 19 12 6z m1072 -7 c-3 -3 -12 -4 -19 -1 -8 3 -5 6 6 6 11
1 17 -2 13 -5z m-1490 -19 c5 -4 2 -5 -4 -1 -15 9 -18 -10 -3 -19 6 -4 8 -11
4 -16 -3 -5 0 -16 6 -24 9 -11 9 -15 1 -15 -6 0 -11 5 -11 12 0 6 -2 9 -5 6
-12 -11 7 -36 24 -31 11 3 21 -2 25 -12 13 -34 -7 -36 -39 -5 -29 28 -32 35
-23 56 9 19 8 28 -5 42 -16 18 -16 19 3 17 11 -1 23 -5 27 -10z m1718 -12 c-3
15 -1 27 4 27 11 0 21 -49 11 -55 -4 -3 -10 -15 -13 -27 -2 -13 -8 -32 -12
-43 -7 -20 -6 -20 9 -1 9 11 16 15 16 9 0 -7 -5 -15 -10 -18 -6 -3 -8 -18 -5
-33 5 -25 5 -25 -4 -4 -6 12 -15 22 -21 22 -11 0 -9 22 3 31 10 7 12 66 3 99
-6 21 -4 20 9 -5 l15 -30 -5 28z m2645 23 c0 -2 -9 -6 -20 -9 -11 -3 -20 -1
-20 4 0 5 9 9 20 9 11 0 20 -2 20 -4z m67 -15 c-8 -9 -12 -10 -15 -2 -2 6 -8
11 -13 11 -6 0 -5 -9 1 -21 13 -23 14 -22 -20 -38 -24 -12 -24 -12 -5 4 20 16
20 17 -5 13 -17 -2 -24 -8 -22 -20 2 -10 -2 -18 -8 -18 -5 0 -11 9 -11 20 -1
11 -2 25 -3 31 -1 13 58 36 91 35 17 -1 19 -4 10 -15z m38 9 c-9 -14 8 -13 23
2 9 9 12 9 12 -2 0 -13 2 -13 11 0 8 12 10 12 7 1 -2 -8 -15 -16 -28 -18 -13
-2 -35 -10 -47 -18 -30 -20 -31 0 0 26 25 21 31 23 22 9z m-1199 -27 c-14 -7
-26 -21 -26 -31 1 -16 1 -16 14 1 7 9 17 17 21 17 4 0 2 -6 -4 -13 -6 -8 -7
-18 -3 -22 4 -5 1 -4 -7 0 -11 6 -13 4 -7 -10 5 -14 4 -16 -7 -7 -8 7 -18 8
-22 4 -5 -4 -5 1 -2 11 4 10 7 23 7 27 0 15 42 50 53 43 5 -3 -2 -12 -17 -20z
m-2782 2 c-4 -8 -11 -12 -16 -9 -6 4 -5 10 3 15 19 12 19 11 13 -6z m2571 5
c-11 -5 -27 -9 -35 -9 -9 0 -8 4 5 9 11 5 27 9 35 9 9 0 8 -4 -5 -9z m-2611
-31 c-8 -14 -34 -11 -34 4 0 8 3 17 7 20 9 9 34 -13 27 -24z m2556 13 c3 -3
-10 -2 -28 1 -24 5 -31 3 -26 -5 5 -8 2 -9 -10 -5 -10 4 -36 8 -59 9 -39 1
-38 2 13 8 53 6 99 3 110 -8z m-2487 -40 c-4 -9 -2 -13 4 -9 5 3 20 -8 33 -26
l23 -32 -28 25 c-26 24 -27 24 -21 3 4 -12 3 -24 -2 -27 -6 -3 -10 0 -9 7 1
33 -4 48 -14 41 -8 -5 -9 -2 -1 12 7 12 7 25 1 39 -10 19 -9 19 5 2 8 -11 12
-26 9 -35z m844 16 c-3 -7 -5 -2 -5 12 0 14 2 19 5 13 2 -7 2 -19 0 -25z
m1860 3 c-5 -23 -1 -33 16 -45 16 -11 19 -17 10 -23 -6 -5 -11 -17 -10 -27 1
-10 -4 -21 -10 -23 -7 -3 -13 0 -13 7 0 6 5 8 10 5 13 -8 13 -3 -1 32 -16 37
-20 103 -7 103 6 0 8 -12 5 -29z m448 9 c-10 -11 -20 -18 -23 -15 -7 6 18 35
31 35 5 0 2 -9 -8 -20z m-598 4 c-3 -3 -12 -4 -19 -1 -8 3 -5 6 6 6 11 1 17
-2 13 -5z m-822 -14 c3 -6 -1 -7 -9 -4 -18 7 -21 14 -7 14 6 0 13 -4 16 -10z
m742 4 c-3 -3 -12 -4 -19 -1 -8 3 -5 6 6 6 11 1 17 -2 13 -5z m-500 -36 c-3
-7 -5 -2 -5 12 0 14 2 19 5 13 2 -7 2 -19 0 -25z m307 -20 c-3 -63 -3 -64 -14
-48 -14 21 -13 -3 2 -35 13 -29 1 -49 -22 -35 -8 5 -11 12 -7 17 5 4 13 1 18
-7 9 -12 9 -11 4 5 -16 46 -17 56 -2 78 8 12 13 35 12 50 -2 15 0 25 4 23 4
-3 6 -24 5 -48z m53 46 c-3 -3 -12 -4 -19 -1 -8 3 -5 6 6 6 11 1 17 -2 13 -5z
m-2784 -21 c-4 -10 -9 -11 -19 -2 -18 15 -18 15 5 15 11 0 17 -5 14 -13z
m3515 -13 c-1 -31 -35 -75 -35 -46 0 8 5 14 10 13 5 -1 12 4 15 12 3 8 0 11
-7 7 -8 -5 -8 0 1 18 15 33 17 33 16 -4z m569 -5 c-12 -6 -26 -20 -32 -33 -5
-12 -16 -20 -22 -17 -7 2 -13 1 -13 -4 0 -5 -8 -11 -18 -13 -11 -3 -19 0 -19
7 0 7 5 11 12 9 6 -3 31 15 56 40 27 26 47 39 51 33 4 -6 -3 -16 -15 -22z m43
24 c0 -8 4 -8 13 -1 11 10 75 7 86 -4 8 -7 -5 -14 -35 -18 -16 -2 -42 -11 -58
-19 -16 -9 -34 -13 -39 -10 -5 3 -13 -1 -18 -8 -6 -10 -9 -10 -9 -2 0 15 30
32 46 26 6 -2 11 3 11 12 0 8 -4 15 -9 15 -4 0 -8 5 -8 10 0 6 5 10 10 10 6 0
10 -5 10 -11z m-593 -21 c-3 -8 -6 -5 -6 6 -1 11 2 17 5 13 3 -3 4 -12 1 -19z
m513 12 c0 -5 -4 -10 -10 -10 -5 0 -10 5 -10 10 0 6 5 10 10 10 6 0 10 -4 10
-10z m-2063 -47 c-3 -10 -5 -4 -5 12 0 17 2 24 5 18 2 -7 2 -21 0 -30z m-2467
2 c0 -2 -6 -5 -13 -8 -8 -3 -14 1 -14 8 0 7 6 11 14 8 7 -3 13 -6 13 -8z m481
-28 c-8 -8 -6 -17 7 -31 17 -21 17 -21 -5 -3 -13 11 -19 25 -16 35 5 11 3 13
-7 7 -9 -5 -11 -4 -6 4 4 6 12 9 17 6 5 -4 10 2 10 12 1 17 2 17 6 -1 3 -10 0
-23 -6 -29z m3535 8 c0 -23 -3 -30 -9 -22 -5 7 -6 -1 -3 -23 5 -29 4 -32 -5
-16 -8 14 -8 29 0 57 7 22 13 39 14 39 2 0 3 -16 3 -35z m-5596 5 c299 -25
581 -122 825 -284 128 -86 169 -121 159 -138 -5 -8 -2 -9 11 -4 15 5 16 4 5
-9 -17 -21 -30 -19 -25 5 4 18 0 18 -33 -7 -20 -16 -43 -34 -52 -40 -8 -7 -23
-19 -34 -26 -17 -12 -17 -15 -2 -30 10 -9 12 -18 6 -22 -5 -3 -10 -3 -10 2 0
4 -4 14 -9 21 -6 11 -30 0 -102 -49 -113 -76 -140 -99 -132 -112 3 -6 1 -7 -6
-3 -6 4 -8 12 -5 18 5 8 1 9 -10 5 -11 -4 -29 1 -44 12 -15 10 -63 36 -107 58
-331 166 -726 175 -1074 24 -155 -67 -333 -198 -436 -321 -27 -33 -57 -60 -66
-60 -38 0 -474 49 -497 56 -16 5 12 58 94 174 266 382 700 651 1153 715 98 14
152 19 241 23 19 1 87 -3 150 -8z m2600 -40 c16 -23 18 -30 7 -21 -15 12 -19
12 -30 -3 -12 -16 -13 -16 -13 3 0 11 4 17 9 14 4 -2 5 8 1 24 -8 32 -6 31 26
-17z m3342 29 c19 -10 20 -13 6 -23 -8 -6 -17 -15 -19 -21 -2 -5 -9 -9 -16 -7
-7 2 -13 -3 -13 -9 0 -7 -3 -9 -7 -5 -4 4 3 16 17 26 15 12 19 20 11 20 -20 0
-51 -30 -51 -48 0 -9 -3 -12 -7 -9 -3 4 -12 2 -19 -4 -9 -7 -14 -6 -20 3 -4 7
-4 10 0 6 5 -4 27 13 49 38 48 50 42 47 69 33z m85 -3 c4 -3 1 -12 -7 -19 -8
-7 -11 -8 -7 -1 4 7 0 15 -9 18 -12 5 -14 1 -8 -17 3 -12 3 -19 -1 -15 -4 4
-17 3 -29 -3 -20 -10 -20 -9 -2 5 15 12 16 19 8 29 -10 11 -6 13 18 12 17 -1
33 -5 37 -9z m-2750 -18 c-3 -8 -6 -5 -6 6 -1 11 2 17 5 13 3 -3 4 -12 1 -19z
m2593 12 c0 -5 -4 -10 -10 -10 -5 0 -10 5 -10 10 0 6 5 10 10 10 6 0 10 -4 10
-10z m-1435 -27 c-10 -42 -22 -47 -17 -8 2 19 9 35 14 35 6 0 7 -11 3 -27z
m1116 18 c6 9 9 10 9 2 0 -6 -7 -18 -15 -26 -8 -8 -11 -17 -8 -21 4 -3 1 -6
-5 -6 -14 0 -14 5 -5 40 4 14 8 19 11 11 4 -11 6 -11 13 0z m-3907 -16 c-4 -8
-10 -15 -16 -15 -5 0 -6 -4 -3 -10 3 -5 2 -10 -3 -10 -20 0 -20 14 1 31 27 23
28 23 21 4z m2763 -7 c-3 -8 -6 -5 -6 6 -1 11 2 17 5 13 3 -3 4 -12 1 -19z
m815 -45 c-6 -30 -8 -27 -15 21 -5 33 -4 36 7 21 7 -10 11 -29 8 -42z m-770 0
c-9 -8 -11 -13 -4 -13 18 0 14 -31 -5 -46 -17 -13 -17 -14 0 -8 17 6 18 5 6
-14 -7 -11 -17 -18 -21 -16 -13 8 -9 30 7 44 11 9 12 17 5 30 -7 13 -7 21 0
25 5 3 10 16 11 28 0 21 1 21 9 2 5 -14 3 -24 -8 -32z m-1172 22 c0 -8 -4 -15
-10 -15 -5 0 -7 7 -4 15 4 8 8 15 10 15 2 0 4 -7 4 -15z m415 -5 c3 -5 1 -10
-4 -10 -6 0 -11 5 -11 10 0 6 2 10 4 10 3 0 8 -4 11 -10z m-1567 -20 c12 -13
13 -13 9 1 -3 9 0 16 7 16 8 0 12 -14 11 -39 -1 -36 4 -42 33 -39 6 1 12 -3
12 -9 0 -6 -4 -9 -8 -6 -4 2 -8 -4 -8 -15 0 -16 3 -15 22 8 16 20 23 23 29 13
5 -8 4 -11 -2 -7 -11 7 -28 -22 -18 -31 3 -3 5 0 5 7 0 7 5 9 10 6 6 -3 10
-11 10 -16 0 -6 -4 -7 -10 -4 -14 9 -12 -8 3 -24 10 -11 9 -14 -1 -18 -6 -3
-10 -10 -6 -16 3 -7 -2 -3 -10 7 -9 11 -14 28 -11 37 4 10 1 16 -7 15 -7 0
-13 1 -14 4 0 3 -12 18 -27 33 -14 16 -23 35 -20 43 3 9 0 14 -7 12 -6 -2 -19
7 -27 20 -13 19 -13 22 -2 20 8 -2 20 -10 27 -18z m3523 11 c25 13 37 5 37
-26 0 -17 -5 -24 -13 -21 -8 3 -16 -2 -19 -10 -7 -19 -32 -18 -40 2 -9 22 -9
22 27 20 26 -1 33 3 35 19 0 11 -2 15 -6 10 -4 -6 -17 -11 -29 -13 -17 -2 -23
2 -22 15 0 10 3 13 6 6 3 -10 10 -10 24 -2z m94 -1 c-3 -4 4 -10 15 -13 22 -6
28 8 8 16 -7 2 -1 4 14 4 26 0 26 0 7 -20 -10 -11 -22 -18 -25 -14 -4 3 -21
-1 -38 -9 l-31 -15 25 21 c22 19 23 21 4 15 -14 -3 -21 -1 -21 9 0 7 10 14 23
14 13 0 22 -4 19 -8z m-3115 -10 c0 -5 -2 -10 -4 -10 -3 0 -8 5 -11 10 -3 6
-1 10 4 10 6 0 11 -4 11 -10z m2124 -29 c-4 -17 -9 -30 -11 -27 -3 2 -2 19 2
36 9 41 17 33 9 -9z m-2152 12 c20 -18 24 -33 8 -33 -5 0 -10 7 -10 15 0 8 -7
15 -15 15 -8 0 -15 5 -15 10 0 15 11 12 32 -7z m2909 -6 c-10 -9 -11 -8 -5 6
3 10 9 15 12 12 3 -3 0 -11 -7 -18z m-2843 -53 c-4 -6 -6 -20 -2 -30 5 -16 4
-17 -6 -4 -10 13 -11 13 -7 0 2 -8 10 -14 16 -12 6 1 11 -2 11 -8 0 -5 -6 -10
-14 -10 -22 0 -28 31 -11 56 14 22 12 28 -7 25 -4 0 -4 7 -1 16 4 11 3 14 -5
9 -8 -5 -10 -2 -6 9 5 13 10 11 24 -12 11 -17 14 -32 8 -39z m612 56 c0 -5 -2
-10 -4 -10 -3 0 -8 5 -11 10 -3 6 -1 10 4 10 6 0 11 -4 11 -10z m424 -6 c3 -8
2 -12 -4 -9 -6 3 -10 10 -10 16 0 14 7 11 14 -7z m-1116 -23 c3 -8 -1 -12 -9
-9 -7 2 -15 10 -17 17 -3 8 1 12 9 9 7 -2 15 -10 17 -17z m1839 13 c-3 -3 -12
-4 -19 -1 -8 3 -5 6 6 6 11 1 17 -2 13 -5z m370 -14 c4 -13 3 -13 -7 0 -9 12
-10 6 -6 -25 l6 -40 -15 34 c-8 18 -15 38 -15 43 0 15 33 5 37 -12z m-1517 -4
c0 -2 -7 -7 -16 -10 -8 -3 -12 -2 -9 4 6 10 25 14 25 6z m425 -7 c11 -16 1
-19 -13 -3 -7 8 -8 14 -3 14 5 0 13 -5 16 -11z m1812 -8 c0 -11 -5 -17 -9 -15
-11 7 -10 34 1 34 6 0 9 -9 8 -19z m69 0 c-6 -9 -46 -22 -46 -15 0 3 10 9 23
14 29 11 29 11 23 1z m-1174 -26 c3 -13 1 -22 -3 -19 -9 5 -13 44 -5 44 2 0 6
-11 8 -25z m-1719 -18 c-3 -5 -9 -3 -14 4 -4 7 -5 17 -2 22 3 5 9 3 14 -4 4
-7 5 -17 2 -22z m1013 -5 c-4 -3 -11 0 -16 8 -15 24 -11 33 6 15 9 -9 13 -19
10 -23z m-2426 18 c0 -5 -2 -10 -4 -10 -3 0 -8 5 -11 10 -3 6 -1 10 4 10 6 0
11 -4 11 -10z m2712 -12 c-7 -7 -12 -8 -12 -2 0 14 12 26 19 19 2 -3 -1 -11
-7 -17z m801 -21 c7 4 8 0 4 -11 -4 -10 -7 -24 -7 -32 0 -8 -6 -14 -12 -13
-27 3 -38 -2 -38 -17 0 -11 6 -14 23 -10 12 3 16 3 10 0 -7 -3 -13 -12 -13
-20 0 -9 5 -12 10 -9 15 9 11 -17 -6 -40 -13 -17 -16 -18 -24 -5 -5 8 -9 24
-9 35 1 16 2 16 9 -5 l8 -25 1 27 c1 15 -3 29 -8 32 -5 3 -9 22 -8 41 1 23 4
32 11 25 16 -16 36 -12 36 8 0 11 -3 13 -8 5 -5 -8 -12 -7 -27 4 -20 15 -20
15 2 10 20 -4 22 -2 18 21 l-5 27 11 -28 c6 -15 15 -24 22 -20z m-1518 -54
c-3 -18 -10 -35 -15 -38 -6 -4 -6 4 0 20 12 32 13 68 1 61 -4 -3 -6 7 -3 22
l5 27 9 -30 c5 -16 6 -44 3 -62z m-2015 51 l-25 -15 30 5 c17 3 24 3 17 0 -10
-5 -10 -9 -1 -20 8 -10 8 -14 0 -14 -6 0 -11 5 -11 11 0 5 -4 8 -9 5 -4 -3
-17 4 -27 16 -11 12 -14 19 -9 15 6 -3 17 -2 25 4 8 5 20 9 25 8 6 0 -1 -7
-15 -15z m546 4 c3 -4 -1 -5 -10 -4 -8 1 -18 5 -22 8 -3 4 1 5 10 4 8 -1 18
-5 22 -8z m2191 -131 c-2 -23 -3 -1 -3 48 0 50 1 68 3 42 2 -26 2 -67 0 -90z
m450 97 c1 -25 0 -26 -4 -4 -3 14 -10 29 -17 33 -7 6 -6 7 4 4 8 -2 16 -16 17
-33z m-3092 4 c6 -4 2 -8 -7 -8 -10 0 -18 7 -18 17 0 9 3 12 8 7 4 -5 12 -12
17 -16z m3070 -6 c-3 -8 0 -20 6 -28 7 -9 7 -18 0 -33 -13 -24 -15 -53 -3 -33
5 7 8 -4 8 -27 -1 -22 -7 -46 -13 -52 -9 -9 -9 -16 -2 -25 7 -8 7 -14 -1 -19
-5 -3 -10 0 -11 7 -4 71 -3 85 5 81 5 -4 6 6 1 23 -14 50 -12 132 3 126 7 -2
11 -11 7 -20z m721 5 c-14 -12 -26 -27 -26 -32 0 -6 4 -3 10 5 5 8 12 11 16 7
10 -9 1 -17 -25 -22 -11 -2 -27 -7 -34 -11 -6 -4 3 7 20 26 37 38 37 46 -1 29
-20 -9 -23 -15 -14 -22 9 -6 8 -7 -5 -3 -10 3 -26 6 -35 6 -14 0 -15 2 -2 9 8
6 17 8 21 5 4 -2 11 1 15 7 5 9 -1 10 -22 5 -17 -4 -24 -3 -16 2 7 5 38 9 68
10 l56 1 -26 -22z m51 -4 c1 -24 0 -25 -6 -8 -7 17 -6 35 2 35 2 0 3 -12 4
-27z m-3327 -18 c-8 -9 -8 -15 0 -20 5 -3 10 -1 10 5 0 6 5 8 10 5 6 -3 10
-11 10 -16 0 -6 -4 -8 -9 -4 -5 3 -17 -2 -26 -11 -9 -9 -19 -13 -23 -9 -4 4
-1 10 6 12 6 3 12 9 12 14 0 6 -4 8 -8 5 -5 -3 -9 1 -9 9 0 8 5 13 11 12 6 -1
10 4 8 11 -1 8 2 11 8 7 8 -5 8 -11 0 -20z m863 10 c4 -8 3 -16 -1 -19 -4 -3
-9 4 -9 15 -2 23 3 25 10 4z m-1405 -15 c3 -7 0 -10 -7 -6 -6 4 -11 2 -11 -4
0 -6 -5 -8 -12 -4 -9 6 -9 9 0 12 7 2 9 8 6 14 -4 6 -1 9 6 6 8 -2 16 -10 18
-18z m3846 5 c-4 -8 -8 -15 -10 -15 -2 0 -4 7 -4 15 0 8 4 15 10 15 5 0 7 -7
4 -15z m-104 -19 c0 -3 -4 -8 -10 -11 -5 -3 -10 -1 -10 4 0 6 5 11 10 11 6 0
10 -2 10 -4z m-3632 -41 c-3 -3 -9 2 -12 12 -6 14 -5 15 5 6 7 -7 10 -15 7
-18z m877 14 c11 -16 1 -19 -13 -3 -7 8 -8 14 -3 14 5 0 13 -5 16 -11z m2555
1 c0 -5 -16 -17 -36 -25 -43 -18 -44 -18 -44 -5 0 6 3 9 8 8 16 -3 61 15 56
23 -3 5 0 9 5 9 6 0 11 -4 11 -10z m33 3 c-7 -2 -13 -11 -13 -18 0 -7 6 -16
13 -19 6 -3 1 -3 -12 0 -16 4 -21 2 -17 -5 5 -7 1 -9 -9 -5 -8 4 -22 1 -30 -6
-8 -6 -20 -10 -27 -8 -6 2 6 12 29 21 22 8 43 23 46 31 4 9 12 16 19 15 10 0
10 -2 1 -6z m91 -1 c-5 -4 -12 -11 -15 -15 -3 -5 -9 -2 -12 5 -3 9 3 14 15 15
11 1 16 -1 12 -5z m-3634 -6 c0 -2 -7 -7 -16 -10 -8 -3 -12 -2 -9 4 6 10 25
14 25 6z m58 -14 c18 -18 23 -55 9 -68 -10 -10 -9 -26 1 -20 5 3 9 -2 9 -10 0
-8 -3 -11 -7 -7 -4 4 -24 27 -44 50 -22 25 -33 44 -26 48 6 4 9 1 8 -6 -2 -6
3 -14 10 -16 8 -3 10 2 6 14 -5 16 -4 16 10 -2 9 -11 14 -25 11 -33 -2 -7 0
-10 5 -7 17 11 11 43 -12 59 -12 9 -17 16 -10 16 6 0 20 -8 30 -18z m883 -3
c18 -15 20 -22 10 -28 -27 -17 5 -47 39 -36 12 4 20 2 20 -5 0 -7 7 -10 14 -7
12 5 14 -1 11 -25 -4 -35 -15 -51 -15 -22 0 11 -7 29 -15 40 -13 17 -14 17
-15 2 0 -10 5 -18 10 -18 6 0 10 -7 10 -16 0 -12 -6 -9 -21 10 -11 14 -25 23
-31 20 -6 -4 -8 -2 -5 3 4 6 0 14 -9 17 -9 4 -14 9 -11 13 4 3 -2 17 -13 31
-11 13 -17 28 -14 33 7 12 8 12 35 -12z m459 2 c0 12 2 12 9 0 5 -8 7 -21 3
-29 -4 -11 -1 -13 8 -7 9 6 11 4 5 -5 -5 -9 -14 -4 -31 16 -13 16 -23 34 -23
39 0 6 6 1 14 -9 11 -14 15 -16 15 -5z m2194 10 c3 -5 0 -11 -7 -14 -8 -3 -14
1 -14 9 0 16 13 19 21 5z m-3009 -31 c4 -6 3 -10 -2 -9 -20 3 -25 -2 -13 -15
6 -8 17 -13 24 -10 8 3 16 -2 19 -10 4 -9 2 -16 -3 -16 -6 0 -10 6 -10 13 0 9
-3 8 -9 -2 -6 -9 -10 -10 -14 -2 -3 7 -4 7 -2 -1 1 -7 8 -12 14 -10 6 1 11 -7
11 -18 0 -11 4 -20 9 -20 15 0 23 18 11 23 -7 4 -6 5 1 4 6 -2 10 -6 9 -11 -1
-5 4 -12 11 -17 8 -4 14 -18 14 -31 0 -15 5 -22 15 -20 12 3 13 1 2 -10 -11
-11 -15 -10 -23 2 -5 8 -7 23 -5 33 4 16 -6 22 -28 18 -5 -1 -18 6 -29 16 -20
17 -20 17 -14 0 4 -10 3 -16 -2 -12 -5 3 -8 21 -7 40 2 24 -1 35 -10 35 -19 0
-17 10 4 26 21 16 19 16 27 4z m1742 -62 c-3 -7 -5 -2 -5 12 0 14 2 19 5 13 2
-7 2 -19 0 -25z m-430 -20 c-3 -7 -5 -2 -5 12 0 14 2 19 5 13 2 -7 2 -19 0
-25z m-2292 13 c-3 -5 -1 -12 5 -16 26 -16 -4 -30 -40 -19 -12 4 -9 10 10 24
28 22 34 24 25 11z m87 -29 c10 -8 15 -19 12 -23 -3 -5 2 -9 11 -9 8 0 20 -10
25 -22 5 -13 9 -19 9 -14 1 5 10 1 20 -8 12 -11 17 -25 13 -39 -5 -19 -3 -20
10 -9 13 10 18 9 29 -5 7 -10 10 -15 5 -11 -5 4 -17 3 -26 -2 -16 -9 -29 2
-34 30 -4 19 -20 27 -49 25 -32 -1 -33 0 -32 32 2 22 -4 37 -14 43 -13 7 -13
9 -2 10 11 0 10 4 -5 16 -10 8 -12 12 -4 8 8 -4 23 -14 32 -22z m3401 13 c4
-8 2 -17 -3 -20 -6 -4 -10 3 -10 14 0 25 6 27 13 6z m-2103 -32 c0 -8 3 -12 8
-10 4 3 8 -6 8 -20 2 -30 2 -29 -24 25 -14 29 -16 40 -6 32 7 -7 14 -19 14
-27z m485 -13 c9 -17 13 -35 10 -40 -3 -6 -2 -10 3 -10 6 0 13 -7 16 -16 3 -8
2 -12 -4 -9 -6 3 -10 -1 -10 -9 0 -20 17 -30 23 -14 3 7 6 9 6 3 0 -5 -4 -17
-9 -25 -9 -13 -11 -13 -20 0 -6 8 -9 25 -7 37 2 12 0 20 -4 17 -5 -3 -9 -17
-9 -31 0 -33 -9 -25 -14 13 -3 16 -8 38 -12 48 -5 14 -4 17 4 12 7 -4 12 -15
12 -24 1 -16 2 -15 11 1 8 13 6 21 -5 33 -15 14 -22 44 -11 44 2 0 12 -14 20
-30z m435 3 c-1 -24 -2 -26 -11 -10 -5 9 -7 22 -4 27 10 17 15 11 15 -17z
m430 23 c0 -3 -4 -8 -10 -11 -5 -3 -10 -1 -10 4 0 6 5 11 10 11 6 0 10 -2 10
-4z m-2197 -36 c5 0 6 8 2 18 -5 13 -3 14 6 5 11 -11 5 -33 -10 -33 -5 0 -19
9 -32 21 l-24 21 25 -16 c13 -9 28 -16 33 -16z m2623 21 c-3 -5 -16 -11 -28
-14 -22 -6 -22 -5 -4 8 22 17 40 20 32 6z m72 -2 c21 11 110 16 100 5 -3 -3
-24 -5 -46 -6 -22 0 -46 -4 -53 -9 -9 -6 8 -7 46 -4 40 4 55 3 46 -4 -8 -5
-20 -7 -27 -4 -6 2 -15 0 -18 -5 -3 -6 -15 -8 -26 -5 -11 3 -20 0 -20 -6 0 -7
-11 -1 -24 11 -13 13 -21 27 -18 32 2 4 8 3 12 -4 6 -9 13 -9 28 -1z m133 -12
c-10 -9 -11 -8 -5 6 3 10 9 15 12 12 3 -3 0 -11 -7 -18z m39 13 c0 -5 -2 -10
-4 -10 -3 0 -8 5 -11 10 -3 6 -1 10 4 10 6 0 11 -4 11 -10z m-235 -28 l-20 -5
20 -7 c14 -6 10 -7 -17 -7 -21 1 -38 2 -38 4 0 6 45 22 60 21 8 0 6 -3 -5 -6z
m-1742 -22 c3 -11 1 -20 -4 -20 -5 0 -9 9 -9 20 0 11 2 20 4 20 2 0 6 -9 9
-20z m-878 0 c3 -6 -1 -7 -9 -4 -18 7 -21 14 -7 14 6 0 13 -4 16 -10z m-685
-4 c0 -2 -7 -7 -16 -10 -8 -3 -12 -2 -9 4 6 10 25 14 25 6z m1199 -23 c-1 -23
-16 -71 -19 -60 -2 7 -3 63 -1 72 3 14 21 3 20 -12z m1682 -66 c-8 -8 -11 -5
-11 10 0 12 -4 25 -10 28 -5 3 -10 16 -10 28 0 17 5 13 21 -17 14 -27 17 -42
10 -49z m-2911 51 c0 -6 -8 -20 -17 -31 -17 -19 -17 -20 0 -14 10 4 16 3 13
-2 -6 -9 -83 -8 -92 2 -3 3 5 11 18 18 12 6 31 20 41 31 18 18 37 17 37 -4z
m760 -12 c0 6 -6 16 -12 23 -11 10 -8 10 11 3 13 -5 28 -19 33 -31 4 -12 4
-20 -1 -17 -5 3 -8 -5 -8 -17 0 -16 6 -23 20 -24 25 -2 52 -30 62 -62 5 -17 4
-22 -5 -16 -8 5 -11 3 -8 -6 3 -8 11 -13 18 -11 8 2 10 -3 7 -13 -4 -8 -2 -26
3 -40 5 -14 6 -25 1 -25 -5 0 -11 14 -15 31 -3 18 -10 28 -17 24 -5 -4 -10 -1
-8 6 3 28 -1 40 -13 33 -6 -4 -8 -3 -5 3 4 6 -2 18 -13 28 -11 10 -16 24 -13
33 4 10 2 13 -5 8 -15 -9 -33 26 -21 45 5 7 9 21 8 29 0 9 -4 7 -12 -8 l-13
-22 -24 32 -23 33 26 -24 c15 -14 27 -20 27 -15z m534 -41 c1 -5 4 -14 8 -20
3 -5 0 -16 -7 -22 -11 -10 -13 -8 -11 15 2 16 -7 40 -20 58 -13 17 -20 34 -17
38 6 6 44 -49 47 -69z m340 65 c-28 -11 -38 -27 -23 -36 6 -3 15 0 20 7 4 7
11 10 16 6 4 -5 1 -12 -6 -16 -7 -5 -10 -14 -7 -20 9 -15 25 -5 36 23 6 16 8
9 7 -25 -1 -32 -6 -45 -14 -42 -7 3 -13 9 -13 13 0 5 6 10 13 13 6 3 2 4 -10
4 -24 -1 -30 -12 -13 -22 5 -3 7 -13 4 -23 -5 -14 -4 -15 5 -2 9 13 11 12 11
-3 0 -10 4 -16 8 -13 4 2 7 -7 6 -22 -3 -45 -4 -48 -14 -32 -5 8 -7 23 -4 34
4 11 2 16 -4 12 -11 -6 -38 59 -34 82 2 6 -1 12 -6 12 -5 0 -14 11 -20 24 -12
26 -3 33 43 34 19 1 19 0 -1 -8z m833 -27 c-3 -10 -5 -4 -5 12 0 17 2 24 5 18
2 -7 2 -21 0 -30z m753 31 c0 -8 -19 -13 -24 -6 -3 5 1 9 9 9 8 0 15 -2 15 -3z
m-1983 -66 c-3 -7 -5 -2 -5 12 0 14 2 19 5 13 2 -7 2 -19 0 -25z m770 10 c-3
-8 -6 -5 -6 6 -1 11 2 17 5 13 3 -3 4 -12 1 -19z m-1637 -2 c34 -1 50 -13 43
-33 -4 -10 -2 -14 4 -10 6 4 18 -2 27 -12 15 -16 15 -18 -4 -16 -25 2 -33 10
-35 38 -2 19 -7 22 -42 20 -28 -1 -40 2 -40 12 0 8 5 11 11 8 6 -4 22 -7 36
-7z m1725 -34 c-3 -8 0 -19 7 -24 10 -7 9 -9 -2 -5 -8 2 -15 16 -16 30 -1 14
3 24 8 21 5 -3 7 -13 3 -22z m-1220 -20 c-6 -7 -35 18 -35 31 0 5 9 2 20 -8
11 -10 18 -20 15 -23z m1655 28 c8 13 10 12 10 -2 0 -11 -8 -18 -20 -18 -12 0
-20 7 -20 18 0 14 2 15 10 2 9 -13 11 -13 20 0z m96 -10 c-1 -11 8 -14 29 -13
l30 2 -28 -10 c-24 -9 -31 -8 -47 11 -14 16 -25 20 -42 15 -17 -5 -19 -4 -8 4
22 15 67 9 66 -9z m39 2 c-3 -3 -11 0 -18 7 -9 10 -8 11 6 5 10 -3 15 -9 12
-12z m155 8 c-20 -13 -33 -13 -25 0 3 6 14 10 23 10 15 0 15 -2 2 -10z m-90
-12 c0 -11 -22 -10 -40 2 -11 8 -9 9 13 8 15 -1 27 -6 27 -10z m-2895 -27 c0
-16 -3 -27 -7 -25 -6 4 -5 29 1 52 4 11 7 -3 6 -27z m2768 10 c5 0 6 -5 2 -10
-8 -13 -43 -9 -49 5 -4 10 9 11 47 5z m-1268 -41 c0 -3 6 -15 13 -26 6 -12 8
-24 4 -28 -3 -4 0 -11 8 -16 8 -5 12 -11 9 -14 -8 -8 -49 23 -48 37 0 9 2 8 6
-1 2 -6 9 -10 14 -7 5 4 2 16 -6 29 -8 12 -13 25 -9 28 3 3 1 9 -4 12 -6 3
-12 -1 -16 -9 -3 -8 -1 -17 5 -20 5 -4 6 -11 3 -17 -3 -5 -11 1 -18 14 -9 18
-9 26 3 40 15 17 16 17 25 0 6 -9 11 -19 11 -22z m1210 29 c5 -7 -5 -8 -32 -3
-51 9 -54 14 -10 14 20 0 39 -5 42 -11z m-2130 -19 c3 -5 1 -10 -4 -10 -6 0
-11 5 -11 10 0 6 2 10 4 10 3 0 8 -4 11 -10z m1685 -10 c6 -11 8 -20 6 -20 -3
0 -10 9 -16 20 -6 11 -8 20 -6 20 3 0 10 -9 16 -20z m397 14 c-3 -3 -12 -4
-19 -1 -8 3 -5 6 6 6 11 1 17 -2 13 -5z m-2040 -10 c-3 -3 -12 -4 -19 -1 -8 3
-5 6 6 6 11 1 17 -2 13 -5z m-573 -19 c-4 -8 -1 -15 5 -15 6 0 11 5 11 10 0 6
4 10 8 10 4 0 8 -11 8 -24 l0 -24 -33 22 c-31 20 -31 24 4 35 1 1 0 -6 -3 -14z
m2176 8 c0 -1 -10 -7 -21 -14 -17 -9 -20 -8 -14 2 6 9 3 11 -9 6 -9 -4 -15 -3
-12 2 5 7 56 11 56 4z m-2847 -28 c93 -14 242 -57 261 -75 8 -8 -72 -56 -119
-71 -19 -7 -19 -7 2 -8 12 -1 39 10 59 24 21 14 44 23 51 20 8 -2 12 -1 9 4
-10 15 22 20 34 6 7 -8 16 -13 20 -10 5 3 11 1 14 -3 3 -5 -16 -8 -43 -7 -34
2 -55 -3 -72 -16 -16 -13 -19 -19 -9 -19 9 0 16 -10 16 -25 2 -21 -1 -24 -12
-14 -8 6 -14 18 -14 25 0 8 -4 14 -10 14 -5 0 -10 -4 -10 -10 0 -5 -7 -7 -15
-4 -8 4 -15 1 -15 -5 0 -6 6 -11 14 -11 8 0 18 -5 22 -12 5 -8 2 -9 -12 -3
-10 4 -28 7 -39 7 -16 -1 -17 1 -5 8 13 9 13 11 0 19 -8 6 -17 6 -20 1 -3 -5
-17 -11 -32 -14 -29 -5 -150 -48 -146 -51 2 -1 15 -5 30 -9 23 -5 27 -3 22 11
-5 14 -4 15 4 4 7 -10 39 -12 140 -10 72 2 123 1 112 -3 -26 -10 -267 -12
-314 -3 -29 6 -37 5 -31 -4 5 -10 -50 -11 -251 -6 -143 4 -297 10 -344 13
l-85 7 65 49 c157 117 372 190 575 195 28 0 94 -6 148 -14z m1288 -2 c10 -11
10 -14 2 -9 -8 4 -13 1 -13 -9 0 -9 4 -14 9 -10 6 3 8 -6 5 -21 -3 -16 -1 -23
6 -19 5 3 10 14 10 23 0 14 2 15 10 2 6 -9 5 -17 -2 -21 -6 -4 -11 -17 -12
-30 -1 -15 -8 -25 -21 -27 -19 -4 -19 -3 -3 10 13 10 15 17 7 28 -9 13 -10 12
-5 -2 3 -10 2 -18 -3 -18 -4 0 -8 27 -7 60 0 33 1 60 2 60 1 0 8 -8 15 -17z
m800 -28 c5 4 9 1 9 -5 0 -23 -25 -3 -26 21 -1 22 -1 22 3 1 2 -12 9 -20 14
-17z m719 0 c0 -5 -5 -3 -10 5 -5 8 -10 20 -10 25 0 6 5 3 10 -5 5 -8 10 -19
10 -25z m70 16 c0 -8 -3 -11 -7 -8 -3 4 -12 2 -20 -5 -7 -6 -16 -8 -20 -4 -3
3 -1 6 5 6 7 0 12 5 12 11 0 6 -7 8 -16 5 -8 -3 -12 -2 -9 4 9 15 55 8 55 -9z
m35 1 c-3 -3 -11 0 -18 7 -9 10 -8 11 6 5 10 -3 15 -9 12 -12z m-2141 -49
c-16 -11 -13 -17 7 -15 3 1 6 -6 6 -14 0 -11 -6 -9 -23 7 -27 25 -25 35 6 35
20 0 20 -1 4 -13z m976 -14 c0 -10 -7 -19 -15 -19 -8 0 -15 2 -15 4 0 2 -3 13
-6 23 -6 16 -5 16 10 -2 17 -20 17 -20 10 4 -4 16 -3 21 5 17 6 -4 11 -16 11
-27z m838 19 c-2 -5 -7 -9 -11 -9 -4 1 -24 2 -44 2 l-38 2 35 6 c49 9 61 9 58
-1z m-870 -50 c8 -10 19 -15 23 -12 5 3 9 0 9 -5 0 -14 -6 -14 -33 1 -20 10
-21 10 -8 -5 11 -15 11 -17 -2 -17 -8 0 -17 9 -20 20 -3 11 -1 17 4 14 6 -3 8
6 4 23 -3 15 -2 21 1 13 4 -8 13 -23 22 -32z m455 29 c3 -7 -2 -22 -9 -32 -14
-19 -14 -18 -10 5 2 14 5 28 5 33 1 11 8 8 14 -6z m-823 -13 c0 -8 -19 -13
-24 -6 -3 5 1 9 9 9 8 0 15 -2 15 -3z m14 -22 c3 -5 -1 -9 -9 -9 -8 0 -12 4
-9 9 3 4 7 8 9 8 2 0 6 -4 9 -8z m826 4 c0 -3 -4 -8 -10 -11 -5 -3 -10 -1 -10
4 0 6 5 11 10 11 6 0 10 -2 10 -4z m-1763 -71 c-1 -5 4 -9 11 -7 8 1 11 -2 8
-7 -3 -5 -21 -2 -41 7 -23 11 -31 19 -22 24 9 6 9 8 -1 8 -7 0 -22 -9 -34 -20
-12 -11 -27 -20 -32 -20 -6 0 0 9 14 20 l25 19 -25 11 c-25 10 -25 10 3 5 17
-4 26 -2 23 4 -4 5 11 0 33 -12 22 -12 39 -26 38 -32z m426 38 c-15 -12 -11
-18 10 -14 5 1 6 -3 2 -9 -7 -12 -45 10 -45 26 0 7 11 11 25 10 23 -1 24 -2 8
-13z m1028 0 c12 -15 12 -16 -4 -10 -10 4 -27 2 -38 -3 -13 -7 -19 -7 -19 0 0
5 8 10 18 10 14 0 15 2 2 10 -12 8 -11 10 6 10 12 0 28 -8 35 -17z m37 0 c-12
-15 -22 -18 -14 -4 4 5 0 11 -6 14 -7 3 -3 4 9 4 17 -1 19 -4 11 -14z m97 -1
c-3 -3 -11 0 -18 7 -9 10 -8 11 6 5 10 -3 15 -9 12 -12z m-628 -19 c14 -20 13
-22 -7 -20 -15 1 -20 6 -17 19 3 9 1 19 -4 22 -5 2 -4 3 2 2 7 -1 19 -12 26
-23z m373 6 c0 -5 -4 -7 -10 -4 -5 3 -10 2 -10 -3 0 -6 -10 -8 -22 -4 -21 5
-21 6 -2 13 28 11 44 10 44 -2z m50 1 c0 -5 -5 -10 -11 -10 -5 0 -7 5 -4 10 3
6 8 10 11 10 2 0 4 -4 4 -10z m-1703 -46 c-3 -3 -12 -4 -19 -1 -8 3 -5 6 6 6
11 1 17 -2 13 -5z m390 -46 c-14 -9 -29 1 -21 13 3 5 0 18 -7 27 -7 9 -1 6 13
-8 15 -16 21 -28 15 -32z m-199 35 c-10 -2 -26 -2 -35 0 -10 3 -2 5 17 5 19 0
27 -2 18 -5z m646 -8 c6 -16 -50 -17 -63 -2 -7 9 -1 12 24 13 19 0 36 -5 39
-11z m76 5 c0 -5 -7 -7 -15 -4 -8 4 -22 1 -30 -6 -9 -8 -15 -8 -15 -2 0 6 6
13 13 15 21 9 47 7 47 -3z m37 4 c-3 -3 -12 -4 -19 -1 -8 3 -5 6 6 6 11 1 17
-2 13 -5z m-747 -24 c0 -11 -48 -25 -57 -16 -4 3 1 6 10 6 10 0 17 5 17 10 0
6 7 10 15 10 8 0 15 -4 15 -10z m-2515 -960 c-3 -5 -12 -10 -18 -10 -7 0 -6 4
3 10 19 12 23 12 15 0z m-35 -24 c0 -2 -8 -10 -17 -17 -16 -13 -17 -12 -4 4
13 16 21 21 21 13z m1201 -423 c13 -16 12 -17 -3 -4 -10 7 -18 15 -18 17 0 8
8 3 21 -13z m40 -2420 c13 -16 12 -17 -3 -4 -17 13 -22 21 -14 21 2 0 10 -8
17 -17z m2277 -1980 l114 -17 -6 -30 c-14 -75 -17 -186 -7 -240 36 -191 210
-380 470 -511 100 -50 277 -118 379 -146 45 -12 80 -24 78 -26 -7 -7 -307 46
-433 77 -437 106 -732 277 -826 478 -27 58 -29 70 -25 150 4 64 11 102 30 142
38 84 76 140 95 140 10 0 69 -8 131 -17z"/>
<path d="M18198 21953 c6 -2 18 -2 25 0 6 3 1 5 -13 5 -14 0 -19 -2 -12 -5z"/>
<path d="M18198 21933 c6 -2 18 -2 25 0 6 3 1 5 -13 5 -14 0 -19 -2 -12 -5z"/>
<path d="M21315 21400 c0 -553 1 -779 2 -502 2 276 2 728 0 1005 -1 276 -2 50
-2 -503z"/>
<path d="M20008 20843 c7 -3 16 -2 19 1 4 3 -2 6 -13 5 -11 0 -14 -3 -6 -6z"/>
<path d="M19471 17592 c-14 -26 -14 -42 -1 -42 6 0 10 6 10 14 0 8 6 16 13 19
9 3 9 7 0 17 -9 9 -14 8 -22 -8z"/>
<path d="M24170 19866 c0 -2 7 -7 16 -10 8 -3 12 -2 9 4 -6 10 -25 14 -25 6z"/>
<path d="M24226 19862 c-3 -5 1 -9 9 -9 8 0 12 4 9 9 -3 4 -7 8 -9 8 -2 0 -6
-4 -9 -8z"/>
<path d="M23340 19014 c0 -1 16 -11 35 -23 19 -11 35 -16 35 -11 0 5 -9 12
-20 15 -11 3 -20 10 -20 14 0 4 -7 8 -15 8 -8 0 -15 -1 -15 -3z"/>
<path d="M20375 17569 c-4 -5 14 -9 41 -9 55 0 55 5 2 13 -21 3 -40 1 -43 -4z"/>
<path d="M24839 19397 c6 -8 7 -17 3 -22 -4 -4 0 -5 8 -3 8 3 24 -2 35 -10 11
-9 6 -1 -12 16 -31 32 -56 45 -34 19z"/>
<path d="M25159 19028 c5 -13 17 -24 27 -26 18 -3 18 -2 2 8 -10 6 -18 18 -18
25 0 8 -4 15 -10 15 -6 0 -6 -9 -1 -22z"/>
<path d="M24450 19260 c0 -5 5 -10 10 -10 6 0 10 5 10 10 0 6 -4 10 -10 10 -5
0 -10 -4 -10 -10z"/>
<path d="M24405 19227 c17 -14 32 -21 34 -15 4 13 -8 24 -39 33 -23 7 -23 7 5
-18z"/>
<path d="M24690 19020 c0 -5 5 -10 10 -10 6 0 10 5 10 10 0 6 -4 10 -10 10 -5
0 -10 -4 -10 -10z"/>
<path d="M24737 18900 c9 -11 19 -17 21 -15 6 6 -18 35 -29 35 -5 0 -1 -9 8
-20z"/>
<path d="M24260 18944 c0 -7 91 -96 141 -139 22 -19 23 -19 9 -1 -8 11 -35 38
-59 60 -24 23 -54 51 -67 64 -13 13 -24 20 -24 16z"/>
<path d="M18425 17829 c4 -10 2 -20 -4 -24 -6 -3 -11 -11 -11 -18 0 -6 7 -1
16 12 13 17 14 25 5 34 -9 9 -11 8 -6 -4z"/>
<path d="M23237 18603 c-14 -13 -6 -33 13 -33 13 0 20 7 20 20 0 19 -20 27
-33 13z"/>
<path d="M24835 18779 c-3 -4 2 -6 10 -5 21 3 28 13 10 13 -9 0 -18 -4 -20 -8z"/>
<path d="M24500 18675 c-7 -8 -10 -18 -6 -22 3 -3 6 -1 6 5 0 7 5 12 11 12 5
0 7 -4 4 -10 -3 -5 -1 -10 4 -10 13 0 14 10 2 28 -6 10 -10 10 -21 -3z"/>
<path d="M24018 18582 c19 -21 27 -20 19 3 -4 8 -13 15 -22 15 -13 0 -12 -3 3
-18z"/>
<path d="M24570 18599 c0 -5 5 -7 10 -4 6 3 10 8 10 11 0 2 -4 4 -10 4 -5 0
-10 -5 -10 -11z"/>
<path d="M24575 18539 c-11 -17 1 -21 15 -4 8 9 8 15 2 15 -6 0 -14 -5 -17
-11z"/>
<path d="M23790 18340 c0 -5 5 -10 11 -10 5 0 7 5 4 10 -3 6 -8 10 -11 10 -2
0 -4 -4 -4 -10z"/>
<path d="M23940 18151 c-8 -6 -19 -7 -25 -4 -5 4 -6 2 -2 -2 13 -15 35 -14 41
1 6 16 6 17 -14 5z"/>
<path d="M23860 18099 c0 -5 5 -7 10 -4 6 3 10 8 10 11 0 2 -4 4 -10 4 -5 0
-10 -5 -10 -11z"/>
<path d="M23309 18219 c-8 -5 -9 -9 -4 -9 6 0 3 -5 -5 -10 -11 -7 -7 -9 14 -7
32 2 46 21 23 30 -8 3 -20 1 -28 -4z"/>
<path d="M17780 17430 c-13 -8 -12 -10 3 -10 9 0 17 5 17 10 0 12 -1 12 -20 0z"/>
<path d="M17846 17370 c5 -8 9 -18 9 -22 0 -5 4 -8 8 -9 18 -2 16 9 -5 27 -13
11 -18 13 -12 4z"/>
<path d="M23717 18050 c19 -18 26 -18 29 3 1 7 -9 13 -23 13 -23 2 -24 1 -6
-16z"/>
<path d="M23765 18059 c-11 -16 -1 -19 13 -3 7 8 8 14 3 14 -5 0 -13 -5 -16
-11z"/>
<path d="M23160 17912 c0 -6 11 -19 25 -28 l25 -16 -31 -30 c-22 -22 -27 -34
-19 -42 12 -12 44 3 40 18 -1 5 4 13 12 17 10 7 10 9 -2 10 -11 0 -10 2 3 7
15 7 13 12 -18 42 -19 19 -35 29 -35 22z m35 -102 c-3 -5 -14 -10 -23 -9 -14
0 -13 2 3 9 27 11 27 11 20 0z"/>
<path d="M17962 17767 c-8 -10 -6 -13 7 -13 11 0 17 6 14 13 -3 7 -6 13 -8 13
-1 0 -7 -6 -13 -13z"/>
<path d="M17950 17720 c0 -5 5 -10 11 -10 5 0 7 -6 3 -12 -5 -10 -4 -10 6 -1
7 6 9 16 6 22 -9 14 -26 14 -26 1z"/>
<path d="M18005 17660 c-4 -6 -3 -9 2 -8 13 4 53 -35 46 -45 -3 -6 -1 -7 5 -3
9 5 9 12 0 25 -16 26 -46 43 -53 31z"/>
<path d="M18050 17655 c7 -9 15 -13 17 -11 7 7 -7 26 -19 26 -6 0 -6 -6 2 -15z"/>
<path d="M22500 17560 c-11 -8 -7 -9 15 -4 37 8 45 14 19 14 -10 0 -26 -5 -34
-10z"/>
<path d="M22366 17494 c-11 -8 -16 -14 -10 -14 13 0 39 18 34 24 -3 2 -14 -2
-24 -10z"/>
<path d="M22087 17419 c7 -7 15 -10 18 -7 3 3 -2 9 -12 12 -14 6 -15 5 -6 -5z"/>
<path d="M18370 17200 c0 -5 5 -10 11 -10 5 0 7 5 4 10 -3 6 -8 10 -11 10 -2
0 -4 -4 -4 -10z"/>
<path d="M21795 17300 c-3 -5 -1 -10 4 -10 6 0 11 5 11 10 0 6 -2 10 -4 10 -3
0 -8 -4 -11 -10z"/>
<path d="M20570 17119 c0 -5 5 -7 10 -4 6 3 10 8 10 11 0 2 -4 4 -10 4 -5 0
-10 -5 -10 -11z"/>
<path d="M18440 17082 c6 -13 14 -21 18 -18 3 4 -2 14 -12 24 -18 16 -18 16
-6 -6z"/>
<path d="M17100 16980 c-9 -6 -10 -10 -3 -10 6 0 15 5 18 10 8 12 4 12 -15 0z"/>
<path d="M17214 16924 c1 -7 5 -17 9 -21 16 -15 35 -11 30 7 -6 21 -42 34 -39
14z m26 -14 c0 -5 -2 -10 -4 -10 -3 0 -8 5 -11 10 -3 6 -1 10 4 10 6 0 11 -4
11 -10z"/>
<path d="M17270 16896 c0 -2 8 -10 18 -17 15 -13 16 -12 3 4 -13 16 -21 21
-21 13z"/>
<path d="M16905 16835 c-16 -14 -26 -25 -22 -25 14 0 67 34 67 42 0 14 -14 8
-45 -17z"/>
<path d="M17770 16748 c8 -7 21 -20 28 -28 11 -13 12 -11 4 10 -5 14 -18 27
-28 28 -17 3 -17 2 -4 -10z"/>
</g>
</svg>
